<?xml version="1.0" encoding="UTF-8" standalone="no"?>
<svg
   xmlns:dc="http://purl.org/dc/elements/1.1/"
   xmlns:cc="http://creativecommons.org/ns#"
   xmlns:rdf="http://www.w3.org/1999/02/22-rdf-syntax-ns#"
   xmlns:svg="http://www.w3.org/2000/svg"
   xmlns="http://www.w3.org/2000/svg"
   xmlns:sodipodi="http://sodipodi.sourceforge.net/DTD/sodipodi-0.dtd"
   xmlns:inkscape="http://www.inkscape.org/namespaces/inkscape"
   width="126.82281mm"
   height="81.492661mm"
   viewBox="0 0 126.82282 81.492661"
   version="1.1"
   id="svg8"
   inkscape:version="1.0.2 (e86c8708, 2021-01-15)"
   sodipodi:docname="drawing.svg">
  <defs
     id="defs2" />
  <sodipodi:namedview
     id="base"
     pagecolor="#ffffff"
     bordercolor="#666666"
     borderopacity="1.0"
     inkscape:pageopacity="0.0"
     inkscape:pageshadow="2"
     inkscape:zoom="0.35"
     inkscape:cx="-239.02674"
     inkscape:cy="428.33748"
     inkscape:document-units="mm"
     inkscape:current-layer="layer2"
     inkscape:document-rotation="0"
     showgrid="false"
     inkscape:window-width="1252"
     inkscape:window-height="943"
     inkscape:window-x="0"
     inkscape:window-y="25"
     inkscape:window-maximized="0" />
  <metadata
     id="metadata5">
    <rdf:RDF>
      <cc:Work
         rdf:about="">
        <dc:format>image/svg+xml</dc:format>
        <dc:type
           rdf:resource="http://purl.org/dc/dcmitype/StillImage" />
        <dc:title />
      </cc:Work>
    </rdf:RDF>
  </metadata>
  <g
     inkscape:label="Layer 1"
     inkscape:groupmode="layer"
     id="layer1"
     transform="translate(-23.554992,-34.835708)" />
  <g
     inkscape:groupmode="layer"
     id="layer2"
     inkscape:label="Layer 2"
     transform="translate(-23.554992,-34.835708)">
    <path
       style="fill:#07689f;fill-opacity:1;stroke-width:0.264583"
       d="m 27.118307,115.9535 c -1.161728,-0.41415 -2.390945,-1.48898 -3.036501,-2.65515 -0.402503,-0.72709 -0.445339,-3.84482 -0.510128,-37.128654 -0.05093,-26.162507 0.01212,-36.642619 0.225222,-37.433998 0.38296,-1.422204 2.139359,-3.198014 3.550547,-3.58978 1.451538,-0.402968 117.817603,-0.418605 119.267283,-0.01603 1.16751,0.324217 2.6741,1.567902 3.31358,2.735344 0.41688,0.761072 0.4495,3.499403 0.4495,37.730006 0,34.230592 -0.0326,36.968922 -0.4495,37.729992 -0.63948,1.16744 -2.14607,2.41112 -3.31358,2.73534 -0.68409,0.18997 -19.53179,0.27434 -59.736904,0.2674 -49.189611,-0.008 -58.903634,-0.0694 -59.759519,-0.37447 z M 86.216366,98.189707 v -7.83262 l 0.9334,0.81953 c 3.83405,3.36634 10.54464,3.57015 16.324354,0.49578 6.01526,-3.19966 9.33293,-9.72871 8.84167,-17.400079 -0.20147,-3.145893 -0.65177,-4.826331 -2.05198,-7.657552 -2.53043,-5.116508 -7.95526,-8.678535 -13.964924,-9.169578 -3.34214,-0.273082 -6.73521,0.68158 -9.07646,2.553727 l -0.97832,0.782291 -0.08,-1.390381 -0.08,-1.390382 h -5.42395 -5.423963 l -0.06754,24.010938 -0.06755,24.010939 h 5.557653 5.55765 z m 4.73135,-14.21262 c -3.44148,-1.286904 -4.94936,-3.539739 -5.19091,-7.755393 -0.185,-3.228536 0.3334,-4.918781 2.10212,-6.854039 1.6376,-1.791798 3.06152,-2.373813 5.7851,-2.364603 1.72284,0.0058 2.25144,0.128739 3.77117,0.876901 3.172334,1.561732 4.579834,4.259998 4.356954,8.352568 -0.19225,3.530071 -1.59714,5.85175 -4.358544,7.202776 -1.75882,0.860513 -4.90791,1.124379 -6.46589,0.54179 z m 45.936344,9.34755 c 0.87313,-0.14256 1.91492,-0.39444 2.31511,-0.55973 l 0.7276,-0.30054 v -4.496672 -4.496676 l -0.59531,0.176752 c -1.31019,0.389006 -4.98097,0.492831 -5.60558,0.158549 -1.12824,-0.603816 -1.20744,-1.212668 -1.20744,-9.281867 v -7.660468 h 3.71056 3.71057 l -0.0725,-4.431771 -0.0725,-4.431771 -3.63117,-0.07357 -3.63117,-0.07357 -0.073,-4.027475 -0.073,-4.027474 h -5.42396 -5.42395 l -0.073,4.034896 -0.073,4.034896 h -2.37436 -2.37436 v 4.497917 4.497917 h 2.34498 2.34498 l 0.15709,8.665104 c 0.0864,4.765808 0.27247,9.202534 0.41348,9.859392 0.95723,4.458861 3.20093,7.052781 6.84308,7.911171 1.37299,0.32358 6.21708,0.33846 8.13701,0.025 z m -92.003817,-5.840505 0.07117,-5.705899 1.063176,-1.038164 1.063177,-1.038164 0.627412,0.790937 c 0.345078,0.435015 2.870716,3.469841 5.61253,6.74406 l 4.985115,5.953125 6.01927,0.0711 c 4.131487,0.0488 6.019271,-0.0174 6.019271,-0.21109 0,-0.15521 -3.757544,-4.799949 -8.350096,-10.32164 L 53.641171,72.688962 60.469913,65.52304 c 3.755808,-3.941258 6.869145,-7.278085 6.918524,-7.415168 0.05504,-0.152797 -2.397866,-0.221808 -6.338737,-0.178343 l -6.428517,0.0709 -4.773764,5.18329 -4.773763,5.183294 -0.06893,-11.467148 -0.06893,-11.467145 h -5.42117 -5.421178 v 23.950272 23.950275 l 5.357813,-0.0716 5.357812,-0.0716 z"
       id="path24" />
    <path
       style="fill:#ffffff;stroke-width:2.85714;fill-opacity:1"
       d="m 195.29799,184.76605 c 0.0215,-45.17857 0.81427,-85.035713 1.7618,-88.571427 1.55846,-5.815354 3.46252,-6.428572 19.96099,-6.428572 14.30697,0 18.23819,0.923783 18.23819,4.285715 0,5.345402 -0.54933,5.406439 12.85715,-1.428572 14.87334,-7.582863 31.03309,-7.172862 49.11542,1.246144 43.06288,20.049772 49.87575,85.486842 11.84212,113.742622 -19.49403,14.48241 -42.22853,17.41697 -60.95754,7.86838 -6.16453,-3.14286 -11.57925,-5.71429 -12.03269,-5.71429 -0.45345,0 -0.82446,12.85714 -0.82446,28.57143 v 28.57143 h -20 -20 z m 91.95672,-6.10303 c 8.36637,-7.47535 9.22875,-9.77515 9.22875,-24.61125 0,-14.83611 -0.86238,-17.13591 -9.22875,-24.61126 -7.45525,-6.66127 -11.86265,-8.24589 -22.93484,-8.24589 -11.27537,0 -15.00238,1.39343 -21.01545,7.85715 -9.31735,10.01561 -11.67833,20.24673 -8.22218,35.6301 3.64104,16.20631 11.5017,22.22704 29.01961,22.22704 11.31252,0 15.65505,-1.54659 23.15286,-8.24589 z"
       id="path840"
       transform="matrix(0.26458333,0,0,0.26458333,23.554992,34.835708)" />
    <path
       style="fill:#ffffff;fill-opacity:1;stroke-width:2.85714"
       d="m 393.33177,217.02567 c -16.37988,-7.12489 -19.33751,-15.39852 -20.92994,-58.54906 l -1.42857,-38.71056 -9.28571,-0.89531 c -9.08343,-0.8758 -9.28572,-1.19864 -9.28572,-14.81897 0,-13.620341 0.20229,-13.943176 9.28572,-14.818981 9.05523,-0.873086 9.30715,-1.267618 10.14931,-15.895309 l 0.8636,-15 h 18.2728 18.2728 l 0.8636,15 0.8636,15 13.57143,0.870831 13.57143,0.870832 v 14.129167 14.12917 H 423.8304 409.54469 v 26.95686 c 0,36.13027 2.2499,41.61457 17.07214,41.61457 h 11.49929 v 15.35714 c 0,14.91429 -0.25749,15.40864 -8.92857,17.14286 -13.76175,2.75235 -25.90478,1.94524 -35.85578,-2.38324 z"
       id="path842"
       transform="matrix(0.26458333,0,0,0.26458333,23.554992,34.835708)" />
    <path
       style="fill:#ffffff;fill-opacity:1;stroke-width:2.85714"
       d="M 40.97326,129.76605 V 41.194623 h 18.16441 18.16441 l 1.835591,17.561975 c 1.009575,9.659085 1.878346,29.266228 1.930609,43.571432 l 0.09502,26.00945 18.4517,-19.28571 18.4517,-19.285719 h 22.08503 22.08502 l -17.11763,17.857139 c -9.4147,9.82143 -20.75746,21.92023 -25.20614,26.88623 l -8.0885,9.02908 26.73053,32.39949 c 14.7018,17.81972 28.48913,34.64949 30.63852,37.39949 3.64633,4.66523 2.49766,4.99141 -17.15614,4.87178 l -21.06413,-0.12823 -19.94466,-24.15749 c -10.96956,-13.28662 -21.319563,-24.15749 -23,-24.15749 -7.161154,0 -9.912483,7.69244 -9.912483,27.71429 v 20.85714 H 59.544689 40.97326 Z"
       id="path844"
       transform="matrix(0.26458333,0,0,0.26458333,23.554992,34.835708)" />
  </g>
</svg>
