<svg version="1.1" viewBox="0.0 0.0 720.0 540.0" fill="none" stroke="none" stroke-linecap="square" stroke-miterlimit="10" xmlns:xlink="http://www.w3.org/1999/xlink" xmlns="http://www.w3.org/2000/svg"><clipPath id="p.0"><path d="m0 0l720.0 0l0 540.0l-720.0 0l0 -540.0z" clip-rule="nonzero"/></clipPath><g clip-path="url(#p.0)"><path fill="#000000" fill-opacity="0.0" d="m0 0l720.0 0l0 540.0l-720.0 0z" fill-rule="evenodd"/><path fill="#4285f4" d="m8.557765 85.25738l0 -15.251076l0 0c0 -8.422939 17.348957 -15.25108 38.74998 -15.25108c21.401024 0 38.749985 6.8281403 38.749985 15.25108l0 15.251076z" fill-rule="evenodd"/><path stroke="#ffffff" stroke-width="8.0" stroke-linejoin="round" stroke-linecap="butt" d="m8.557765 85.25738l0 -15.251076l0 0c0 -8.422939 17.348957 -15.25108 38.74998 -15.25108c21.401024 0 38.749985 6.8281403 38.749985 15.25108l0 15.251076z" fill-rule="evenodd"/><path fill="#4285f4" d="m21.815186 34.05628l0 0c0 -14.07675 11.41341 -25.488213 25.492561 -25.488213l0 0c6.7610474 0 13.245182 2.685358 18.025963 7.4653254c4.7807846 4.7799664 7.4665985 11.262993 7.4665985 18.022886l0 0c0 14.076752 -11.413406 25.488213 -25.492561 25.488213l0 0c-14.079151 0 -25.492561 -11.411461 -25.492561 -25.488213z" fill-rule="evenodd"/><path stroke="#ffffff" stroke-width="8.0" stroke-linejoin="round" stroke-linecap="butt" d="m21.815186 34.05628l0 0c0 -14.07675 11.41341 -25.488213 25.492561 -25.488213l0 0c6.7610474 0 13.245182 2.685358 18.025963 7.4653254c4.7807846 4.7799664 7.4665985 11.262993 7.4665985 18.022886l0 0c0 14.076752 -11.413406 25.488213 -25.492561 25.488213l0 0c-14.079151 0 -25.492561 -11.411461 -25.492561 -25.488213z" fill-rule="evenodd"/><path fill="#4285f4" d="m73.964264 92.67144l0 -15.251076l0 0c0 -8.4229355 17.348953 -15.251076 38.749977 -15.251076c21.401024 0 38.749992 6.8281403 38.749992 15.251076l0 15.251076z" fill-rule="evenodd"/><path stroke="#ffffff" stroke-width="8.0" stroke-linejoin="round" stroke-linecap="butt" d="m73.964264 92.67144l0 -15.251076l0 0c0 -8.4229355 17.348953 -15.251076 38.749977 -15.251076c21.401024 0 38.749992 6.8281403 38.749992 15.251076l0 15.251076z" fill-rule="evenodd"/><path fill="#4285f4" d="m87.22168 41.470345l0 0c0 -14.076752 11.413414 -25.488213 25.492561 -25.488213l0 0c6.7610474 0 13.245186 2.685357 18.025963 7.4653254c4.780792 4.7799664 7.4665985 11.262993 7.4665985 18.022888l0 0c0 14.076748 -11.413406 25.488213 -25.492561 25.488213l0 0c-14.079147 0 -25.492561 -11.411465 -25.492561 -25.488213z" fill-rule="evenodd"/><path stroke="#ffffff" stroke-width="8.0" stroke-linejoin="round" stroke-linecap="butt" d="m87.22168 41.470345l0 0c0 -14.076752 11.413414 -25.488213 25.492561 -25.488213l0 0c6.7610474 0 13.245186 2.685357 18.025963 7.4653254c4.780792 4.7799664 7.4665985 11.262993 7.4665985 18.022888l0 0c0 14.076748 -11.413406 25.488213 -25.492561 25.488213l0 0c-14.079147 0 -25.492561 -11.411465 -25.492561 -25.488213z" fill-rule="evenodd"/><path fill="#4285f4" d="m40.19124 124.55405l0 -15.251076l0 0c0 -8.422943 17.348957 -15.251076 38.749985 -15.251076c21.401024 0 38.749977 6.8281326 38.749977 15.251076l0 15.251076z" fill-rule="evenodd"/><path stroke="#ffffff" stroke-width="8.0" stroke-linejoin="round" stroke-linecap="butt" d="m40.19124 124.55405l0 -15.251076l0 0c0 -8.422943 17.348957 -15.251076 38.749985 -15.251076c21.401024 0 38.749977 6.8281326 38.749977 15.251076l0 15.251076z" fill-rule="evenodd"/><path fill="#4285f4" d="m53.448658 73.35295l0 0c0 -14.076756 11.41341 -25.488216 25.492565 -25.488216l0 0c6.7610474 0 13.245178 2.68536 18.025963 7.4653244c4.780777 4.7799683 7.4665985 11.262997 7.4665985 18.022892l0 0c0 14.076744 -11.413414 25.488205 -25.492561 25.488205l0 0c-14.079155 0 -25.492565 -11.411461 -25.492565 -25.488205z" fill-rule="evenodd"/><path stroke="#ffffff" stroke-width="8.0" stroke-linejoin="round" stroke-linecap="butt" d="m53.448658 73.35295l0 0c0 -14.076756 11.41341 -25.488216 25.492565 -25.488216l0 0c6.7610474 0 13.245178 2.68536 18.025963 7.4653244c4.780777 4.7799683 7.4665985 11.262997 7.4665985 18.022892l0 0c0 14.076744 -11.413414 25.488205 -25.492561 25.488205l0 0c-14.079155 0 -25.492565 -11.411461 -25.492565 -25.488205z" fill-rule="evenodd"/><path fill="#000000" fill-opacity="0.0" d="m138.2068 41.470345l109.6693 13.543304" fill-rule="evenodd"/><path stroke="#414141" stroke-width="4.0" stroke-linejoin="round" stroke-linecap="butt" d="m138.2068 41.47034l85.85025 10.601841" fill-rule="evenodd"/><path fill="#414141" stroke="#414141" stroke-width="4.0" stroke-linecap="butt" d="m223.2473 58.629303l18.825287 -4.3323402l-17.20578 -8.781902z" fill-rule="evenodd"/><path fill="#000000" fill-opacity="0.0" d="m151.46423 77.420364l91.81102 -6.8661423" fill-rule="evenodd"/><path stroke="#414141" stroke-width="4.0" stroke-linejoin="round" stroke-linecap="butt" d="m151.46423 77.420364l67.87784 -5.0762863" fill-rule="evenodd"/><path fill="#414141" stroke="#414141" stroke-width="4.0" stroke-linecap="butt" d="m219.83481 78.93261l17.609116 -7.9422913l-18.594574 -5.2347717z" fill-rule="evenodd"/><path fill="#000000" fill-opacity="0.0" d="m117.6912 109.30297l130.07874 -29.79528" fill-rule="evenodd"/><path stroke="#414141" stroke-width="4.0" stroke-linejoin="round" stroke-linecap="butt" d="m117.6912 109.30296l106.68462 -24.436707" fill-rule="evenodd"/><path fill="#414141" stroke="#414141" stroke-width="4.0" stroke-linecap="butt" d="m225.85097 91.3064l16.218994 -10.493088l-19.169296 -2.3871994z" fill-rule="evenodd"/><path fill="#000000" fill-opacity="0.0" d="m146.13686 15.687689l109.66928 0l0 31.590551l-109.66928 0z" fill-rule="evenodd"/><path fill="#000000" d="m159.80873 37.643936q-1.71875 0 -2.671875 -0.9375q-0.953125 -0.9375 -0.953125 -2.671875l0 -5.437498l1.09375 0l0 5.406248q0 1.234375 0.640625 1.953125q0.640625 0.703125 1.890625 0.703125q1.234375 0 1.875 -0.703125q0.640625 -0.71875 0.640625 -1.953125l0 -5.406248l1.109375 0l0 5.421873q0 1.734375 -0.9375 2.6875q-0.9375 0.9375 -2.6875 0.9375zm5.704651 -0.15625l0 -8.890623l1.09375 0l0 8.890623l-1.09375 0z" fill-rule="nonzero"/><path fill="#000000" fill-opacity="0.0" d="m144.89299 48.579292l46.803146 0l0 31.590553l-46.803146 0z" fill-rule="evenodd"/><path fill="#000000" d="m159.14299 70.53554q-1.953125 0 -3.265625 -1.28125q-1.296875 -1.296875 -1.296875 -3.3125q0 -2.0156212 1.296875 -3.2968712q1.3125 -1.296875 3.265625 -1.296875q2.125 0 3.375 1.75l-0.9375 0.53125q-0.390625 -0.5625 -1.03125 -0.921875q-0.640625 -0.375 -1.40625 -0.375q-1.484375 0 -2.453125 1.03125q-0.96875 1.0156212 -0.96875 2.5781212q0 1.578125 0.96875 2.59375q0.96875 1.015625 2.453125 1.015625q0.765625 0 1.40625 -0.359375q0.640625 -0.359375 1.03125 -0.9375l0.953125 0.53125q-1.296875 1.75 -3.390625 1.75zm4.806656 -0.15625l0 -8.890621l1.09375 0l0 7.906246l4.140625 0l0 0.984375l-5.234375 0zm6.7973175 0l0 -8.890621l1.09375 0l0 8.890621l-1.09375 0z" fill-rule="nonzero"/><path fill="#000000" fill-opacity="0.0" d="m142.71129 97.12861l100.566925 0l0 35.55906l-100.566925 0z" fill-rule="evenodd"/><path fill="#000000" d="m159.10191 118.92861l-0.796875 -1.96875l-4.421875 0l-0.78125 1.96875l-1.265625 0l3.5625 -8.890625l1.375 0l3.59375 8.890625l-1.265625 0zm-3.0 -7.75l-1.890625 4.796875l3.765625 0l-1.875 -4.796875zm9.562988 7.75l0 -0.90625q-0.375 0.421875 -0.984375 0.75q-0.59375 0.3125 -1.3125 0.3125q-2.046875 0 -2.046875 -2.046875l0 -4.546875l1.0 0l0 4.234375q0 0.765625 0.34375 1.125q0.34375 0.34375 1.09375 0.34375q0.59375 0 1.109375 -0.28125q0.515625 -0.296875 0.796875 -0.6875l0 -4.734375l1.0 0l0 6.4375l-1.0 0zm4.6250153 0.15625q-1.421875 0 -1.421875 -1.5l0 -4.21875l-1.0625 0l0 -0.875l1.0625 0l0 -1.765625l1.0 0l0 1.765625l1.296875 0l0 0.875l-1.296875 0l0 4.0q0 0.359375 0.15625 0.59375q0.15625 0.234375 0.5 0.234375q0.40625 0 0.671875 -0.265625l0.296875 0.75q-0.421875 0.40625 -1.203125 0.40625zm5.105957 0q-1.40625 0 -2.296875 -0.953125q-0.890625 -0.953125 -0.890625 -2.421875q0 -1.5 0.890625 -2.4375q0.890625 -0.9375 2.296875 -0.9375q1.40625 0 2.296875 0.9375q0.890625 0.9375 0.890625 2.4375q0 1.46875 -0.890625 2.421875q-0.890625 0.953125 -2.296875 0.953125zm0 -0.890625q0.9375 0 1.53125 -0.6875q0.59375 -0.703125 0.59375 -1.796875q0 -1.09375 -0.59375 -1.78125q-0.59375 -0.703125 -1.53125 -0.703125q-0.9375 0 -1.546875 0.703125q-0.59375 0.6875 -0.59375 1.78125q0 1.09375 0.59375 1.796875q0.59375 0.6875 1.546875 0.6875zm12.576782 0.734375l0 -4.375q0 -1.328125 -1.1875 -1.328125q-0.5 0 -0.984375 0.296875q-0.46875 0.296875 -0.71875 0.6875l0 4.71875l-1.0 0l0 -4.375q0 -1.328125 -1.1875 -1.328125q-0.484375 0 -0.953125 0.3125q-0.46875 0.296875 -0.734375 0.6875l0 4.703125l-1.0 0l0 -6.4375l1.0 0l0 0.9375q0.21875 -0.390625 0.84375 -0.734375q0.640625 -0.359375 1.234375 -0.359375q0.75 0 1.171875 0.34375q0.421875 0.34375 0.5625 0.859375q0.328125 -0.53125 0.9375 -0.859375q0.625 -0.34375 1.21875 -0.34375q1.796875 0 1.796875 1.9375l0 4.65625l-1.0 0zm7.0347137 0l0 -0.734375q-0.8125 0.890625 -2.140625 0.890625q-0.96875 0 -1.609375 -0.609375q-0.640625 -0.609375 -0.640625 -1.515625q0 -0.9375 0.625 -1.53125q0.640625 -0.59375 1.625 -0.59375q1.390625 0 2.140625 0.875l0 -1.15625q0 -0.65625 -0.46875 -1.0q-0.453125 -0.359375 -1.15625 -0.359375q-1.140625 0 -1.984375 0.890625l-0.46875 -0.6875q1.03125 -1.0625 2.578125 -1.0625q1.1875 0 1.84375 0.578125q0.65625 0.5625 0.65625 1.59375l0 4.421875l-1.0 0zm-1.78125 -0.5625q1.1875 0 1.78125 -0.796875l0 -1.21875q-0.59375 -0.796875 -1.78125 -0.796875q-0.703125 0 -1.140625 0.40625q-0.4375 0.390625 -0.4375 1.015625q0 0.609375 0.4375 1.0q0.4375 0.390625 1.140625 0.390625zm6.3988953 0.71875q-1.421875 0 -1.421875 -1.5l0 -4.21875l-1.0625 0l0 -0.875l1.0625 0l0 -1.765625l1.0 0l0 1.765625l1.296875 0l0 0.875l-1.296875 0l0 4.0q0 0.359375 0.15625 0.59375q0.15625 0.234375 0.5 0.234375q0.40625 0 0.671875 -0.265625l0.296875 0.75q-0.421875 0.40625 -1.203125 0.40625zm2.793457 -7.515625q-0.28125 0 -0.484375 -0.1875q-0.1875 -0.203125 -0.1875 -0.484375q0 -0.265625 0.1875 -0.46875q0.203125 -0.203125 0.484375 -0.203125q0.265625 0 0.46875 0.203125q0.203125 0.203125 0.203125 0.46875q0 0.28125 -0.203125 0.484375q-0.203125 0.1875 -0.46875 0.1875zm-0.5 7.359375l0 -6.4375l1.0 0l0 6.4375l-1.0 0zm5.81131 0.15625q-1.40625 0 -2.296875 -0.953125q-0.890625 -0.953125 -0.890625 -2.421875q0 -1.5 0.890625 -2.4375q0.890625 -0.9375 2.296875 -0.9375q1.40625 0 2.296875 0.9375q0.890625 0.9375 0.890625 2.4375q0 1.46875 -0.890625 2.421875q-0.890625 0.953125 -2.296875 0.953125zm0 -0.890625q0.9375 0 1.53125 -0.6875q0.59375 -0.703125 0.59375 -1.796875q0 -1.09375 -0.59375 -1.78125q-0.59375 -0.703125 -1.53125 -0.703125q-0.9375 0 -1.546875 0.703125q-0.59375 0.6875 -0.59375 1.78125q0 1.09375 0.59375 1.796875q0.59375 0.6875 1.546875 0.6875zm9.154907 0.734375l0 -4.21875q0 -0.84375 -0.390625 -1.15625q-0.390625 -0.328125 -1.046875 -0.328125q-0.5625 0 -1.109375 0.296875q-0.53125 0.296875 -0.796875 0.703125l0 4.703125l-1.0 0l0 -6.4375l1.0 0l0 0.9375q0.40625 -0.484375 1.015625 -0.78125q0.609375 -0.3125 1.28125 -0.3125q2.046875 0 2.046875 2.078125l0 4.515625l-1.0 0z" fill-rule="nonzero"/><path fill="#000000" fill-opacity="0.0" d="m451.96323 53.130753l0 0c-1.1522827 -6.463669 2.6308289 -12.8623085 9.744019 -16.48074c7.113159 -3.618435 16.308899 -3.8220634 23.68512 -0.5244827l0 0c2.6128845 -3.7582474 7.3952026 -6.353056 12.900452 -6.99955c5.5052185 -0.6464939 11.0867 0.7312622 15.056183 3.7165222l0 0c2.22583 -3.407467 6.5963135 -5.69685 11.560547 -6.0557556c4.9642334 -0.3589058 9.819702 1.2634583 12.843384 4.2913933l0 0c4.0213013 -3.611906 10.4192505 -5.1326675 16.425537 -3.9042454c6.0062256 1.2284241 10.541931 4.9853992 11.64447 9.645258l0 0c4.926758 1.025795 9.03064 3.6335068 11.251404 7.1493835c2.2207031 3.5158768 2.340332 7.5950203 0.32806396 11.18351l0 0c4.8514404 4.819729 5.986328 11.241966 2.981079 16.87004c-3.005188 5.628067 -9.698975 9.616425 -17.583313 10.476685c-0.055603027 5.2821503 -3.850708 10.128983 -9.922546 12.672325c-6.0718994 2.5433426 -13.472351 2.386032 -19.348938 -0.4112854l0 0c-2.5031738 6.3262863 -9.548584 10.98111 -18.092468 11.953407c-8.543915 0.9723053 -17.054565 -1.9122162 -21.855103 -7.407341l0 0c-5.8843994 2.7085648 -12.945251 3.4888153 -19.589691 2.1647415c-6.6444397 -1.3240662 -12.312805 -4.64093 -15.72641 -9.202362l0 0c-6.013153 0.537117 -11.827026 -1.84095 -14.556244 -5.9539795c-2.729187 -4.1130295 -1.7927551 -9.085457 2.3446045 -12.449486l0 0c-5.3638916 -2.4098282 -8.100861 -7.1917267 -6.783722 -11.852123c1.3171692 -4.6603966 6.389984 -8.143227 12.573181 -8.632336z" fill-rule="evenodd"/><path fill="#000000" fill-opacity="0.0" d="m446.05487 73.864334l0 0c2.53125 1.1371994 5.455414 1.6530609 8.379913 1.4783249m3.8304443 16.925552c1.2576294 -0.112342834 2.4903564 -0.35022736 3.6663513 -0.7075348m31.64798 7.744858c-0.8845215 -1.0125351 -1.6251221 -2.0945053 -2.2091064 -3.2274857m42.158173 -1.3187714l0 0c0.45635986 -1.1533737 0.75201416 -2.3404465 0.8820801 -3.5414124m28.388306 -8.719185c0.0592041 -5.623657 -4.125305 -10.772743 -10.7561035 -13.235558m25.358215 -14.110577c-1.0738525 1.9149628 -2.7131348 3.6137009 -4.7894287 4.9630203m-6.7890625 -23.296413l0 0c0.1829834 0.7733078 0.2677002 1.5582352 0.25286865 2.3439064m-28.322388 -8.084684l0 0c-1.0031128 0.90099144 -1.8295288 1.9078388 -2.4535522 2.9891872m-21.950562 -1.2252197l0 0c-0.5345459 0.8183632 -0.93377686 1.6843338 -1.1883545 2.5779572m-26.768707 0.70513916l0 0c1.560791 0.69776535 3.0047607 1.5376015 4.3001404 2.5010567m-37.72885 14.504257l0 0c0.15881348 0.8908615 0.409729 1.7707405 0.75042725 2.631401" fill-rule="evenodd"/><path stroke="#595959" stroke-width="3.0" stroke-linejoin="round" stroke-linecap="butt" d="m451.96323 53.130753l0 0c-1.1522827 -6.463669 2.6308289 -12.8623085 9.744019 -16.48074c7.113159 -3.618435 16.308899 -3.8220634 23.68512 -0.5244827l0 0c2.6128845 -3.7582474 7.3952026 -6.353056 12.900452 -6.99955c5.5052185 -0.6464939 11.0867 0.7312622 15.056183 3.7165222l0 0c2.22583 -3.407467 6.5963135 -5.69685 11.560547 -6.0557556c4.9642334 -0.3589058 9.819702 1.2634583 12.843384 4.2913933l0 0c4.0213013 -3.611906 10.4192505 -5.1326675 16.425537 -3.9042454c6.0062256 1.2284241 10.541931 4.9853992 11.64447 9.645258l0 0c4.926758 1.025795 9.03064 3.6335068 11.251404 7.1493835c2.2207031 3.5158768 2.340332 7.5950203 0.32806396 11.18351l0 0c4.8514404 4.819729 5.986328 11.241966 2.981079 16.87004c-3.005188 5.628067 -9.698975 9.616425 -17.583313 10.476685c-0.055603027 5.2821503 -3.850708 10.128983 -9.922546 12.672325c-6.0718994 2.5433426 -13.472351 2.386032 -19.348938 -0.4112854l0 0c-2.5031738 6.3262863 -9.548584 10.98111 -18.092468 11.953407c-8.543915 0.9723053 -17.054565 -1.9122162 -21.855103 -7.407341l0 0c-5.8843994 2.7085648 -12.945251 3.4888153 -19.589691 2.1647415c-6.6444397 -1.3240662 -12.312805 -4.64093 -15.72641 -9.202362l0 0c-6.013153 0.537117 -11.827026 -1.84095 -14.556244 -5.9539795c-2.729187 -4.1130295 -1.7927551 -9.085457 2.3446045 -12.449486l0 0c-5.3638916 -2.4098282 -8.100861 -7.1917267 -6.783722 -11.852123c1.3171692 -4.6603966 6.389984 -8.143227 12.573181 -8.632336z" fill-rule="evenodd"/><path stroke="#595959" stroke-width="3.0" stroke-linejoin="round" stroke-linecap="butt" d="m446.05487 73.864334l0 0c2.53125 1.1371994 5.455414 1.6530609 8.379913 1.4783249m3.8304443 16.925552c1.2576294 -0.112342834 2.4903564 -0.35022736 3.6663513 -0.7075348m31.64798 7.744858c-0.8845215 -1.0125351 -1.6251221 -2.0945053 -2.2091064 -3.2274857m42.158173 -1.3187714l0 0c0.45635986 -1.1533737 0.75201416 -2.3404465 0.8820801 -3.5414124m28.388306 -8.719185c0.0592041 -5.623657 -4.125305 -10.772743 -10.7561035 -13.235558m25.358215 -14.110577c-1.0738525 1.9149628 -2.7131348 3.6137009 -4.7894287 4.9630203m-6.7890625 -23.296413l0 0c0.1829834 0.7733078 0.2677002 1.5582352 0.25286865 2.3439064m-28.322388 -8.084684l0 0c-1.0031128 0.90099144 -1.8295288 1.9078388 -2.4535522 2.9891872m-21.950562 -1.2252197l0 0c-0.5345459 0.8183632 -0.93377686 1.6843338 -1.1883545 2.5779572m-26.768707 0.70513916l0 0c1.560791 0.69776535 3.0047607 1.5376015 4.3001404 2.5010567m-37.72885 14.504257l0 0c0.15881348 0.8908615 0.409729 1.7707405 0.75042725 2.631401" fill-rule="evenodd"/><path fill="#000000" fill-opacity="0.0" d="m245.72635 33.323246l0 0c0 -10.027601 20.176605 -18.15658 45.065704 -18.15658c24.8891 0 45.065704 8.128979 45.065704 18.15658l0 72.62633c0 10.027603 -20.176605 18.156578 -45.065704 18.156578c-24.8891 0 -45.065704 -8.128975 -45.065704 -18.156578z" fill-rule="evenodd"/><path fill="#000000" fill-opacity="0.0" d="m335.85776 33.323246l0 0c0 10.027603 -20.176605 18.156582 -45.065704 18.156582c-24.8891 0 -45.065704 -8.128979 -45.065704 -18.156582" fill-rule="evenodd"/><path fill="#000000" fill-opacity="0.0" d="m245.72635 33.323246l0 0c0 -10.027601 20.176605 -18.15658 45.065704 -18.15658c24.8891 0 45.065704 8.128979 45.065704 18.15658l0 72.62633c0 10.027603 -20.176605 18.156578 -45.065704 18.156578c-24.8891 0 -45.065704 -8.128975 -45.065704 -18.156578z" fill-rule="evenodd"/><path stroke="#000000" stroke-width="1.0" stroke-linejoin="round" stroke-linecap="butt" d="m335.85776 33.323246l0 0c0 10.027603 -20.176605 18.156582 -45.065704 18.156582c-24.8891 0 -45.065704 -8.128979 -45.065704 -18.156582" fill-rule="evenodd"/><path stroke="#000000" stroke-width="1.0" stroke-linejoin="round" stroke-linecap="butt" d="m245.72635 33.323246l0 0c0 -10.027601 20.176605 -18.15658 45.065704 -18.15658c24.8891 0 45.065704 8.128979 45.065704 18.15658l0 72.62633c0 10.027603 -20.176605 18.156578 -45.065704 18.156578c-24.8891 0 -45.065704 -8.128975 -45.065704 -18.156578z" fill-rule="evenodd"/><path fill="#000000" d="m258.92523 75.5147l0 -8.890625l3.03125 0q2.03125 0 3.296875 1.265625q1.265625 1.25 1.265625 3.1875q0 1.9375 -1.28125 3.1875q-1.265625 1.25 -3.28125 1.25l-3.03125 0zm3.03125 -0.984375q1.515625 0 2.453125 -0.953125q0.953125 -0.953125 0.953125 -2.5q0 -1.546875 -0.9375 -2.5q-0.921875 -0.96875 -2.46875 -0.96875l-1.9375 0l0 6.921875l1.9375 0zm9.157776 1.140625q-1.453125 0 -2.375 -0.9375q-0.90625 -0.953125 -0.90625 -2.4375q0 -1.4375 0.90625 -2.40625q0.90625 -0.96875 2.265625 -0.96875q1.390625 0 2.234375 0.96875q0.859375 0.953125 0.859375 2.484375l0 0.25l-5.21875 0q0.0625 0.984375 0.71875 1.609375q0.65625 0.609375 1.609375 0.609375q1.171875 0 1.984375 -0.8125l0.484375 0.65625q-0.984375 0.984375 -2.5625 0.984375zm2.0 -3.78125q0 -0.890625 -0.59375 -1.515625q-0.578125 -0.625 -1.53125 -0.625q-0.890625 0 -1.484375 0.625q-0.59375 0.625 -0.625 1.515625l4.234375 0zm5.441223 3.78125q-1.421875 0 -2.328125 -0.953125q-0.890625 -0.96875 -0.890625 -2.421875q0 -1.453125 0.890625 -2.40625q0.90625 -0.96875 2.328125 -0.96875q1.484375 0 2.359375 1.109375l-0.671875 0.625q-0.609375 -0.84375 -1.640625 -0.84375q-0.984375 0 -1.609375 0.6875q-0.609375 0.6875 -0.609375 1.796875q0 1.109375 0.609375 1.796875q0.609375 0.6875 1.609375 0.6875q1.015625 0 1.640625 -0.84375l0.671875 0.625q-0.875 1.109375 -2.359375 1.109375zm3.7536316 -0.15625l0 -8.890625l1.0 0l0 8.890625l-1.0 0zm7.03006 0l0 -0.734375q-0.8125 0.890625 -2.140625 0.890625q-0.96875 0 -1.609375 -0.609375q-0.640625 -0.609375 -0.640625 -1.515625q0 -0.9375 0.625 -1.53125q0.640625 -0.59375 1.625 -0.59375q1.390625 0 2.140625 0.875l0 -1.15625q0 -0.65625 -0.46875 -1.0q-0.453125 -0.359375 -1.15625 -0.359375q-1.140625 0 -1.984375 0.890625l-0.46875 -0.6875q1.03125 -1.0625 2.578125 -1.0625q1.1875 0 1.84375 0.578125q0.65625 0.5625 0.65625 1.59375l0 4.421875l-1.0 0zm-1.78125 -0.5625q1.1875 0 1.78125 -0.796875l0 -1.21875q-0.59375 -0.796875 -1.78125 -0.796875q-0.703125 0 -1.140625 0.40625q-0.4375 0.390625 -0.4375 1.015625q0 0.609375 0.4375 1.0q0.4375 0.390625 1.140625 0.390625zm4.7738953 0.5625l0 -6.4375l1.0 0l0 1.046875q0.890625 -1.1875 2.140625 -1.1875l0 1.03125l-0.390625 -0.03125q-0.453125 0 -1.0 0.328125q-0.546875 0.3125 -0.75 0.6875l0 4.5625l-1.0 0zm8.429535 0l0 -0.734375q-0.8125 0.890625 -2.140625 0.890625q-0.96875 0 -1.609375 -0.609375q-0.640625 -0.609375 -0.640625 -1.515625q0 -0.9375 0.625 -1.53125q0.640625 -0.59375 1.625 -0.59375q1.390625 0 2.140625 0.875l0 -1.15625q0 -0.65625 -0.46875 -1.0q-0.453125 -0.359375 -1.15625 -0.359375q-1.140625 0 -1.984375 0.890625l-0.46875 -0.6875q1.03125 -1.0625 2.578125 -1.0625q1.1875 0 1.84375 0.578125q0.65625 0.5625 0.65625 1.59375l0 4.421875l-1.0 0zm-1.78125 -0.5625q1.1875 0 1.78125 -0.796875l0 -1.21875q-0.59375 -0.796875 -1.78125 -0.796875q-0.703125 0 -1.140625 0.40625q-0.4375 0.390625 -0.4375 1.015625q0 0.609375 0.4375 1.0q0.4375 0.390625 1.140625 0.390625zm6.3988953 0.71875q-1.421875 0 -1.421875 -1.5l0 -4.21875l-1.0625 0l0 -0.875l1.0625 0l0 -1.765625l1.0 0l0 1.765625l1.296875 0l0 0.875l-1.296875 0l0 4.0q0 0.359375 0.15625 0.59375q0.15625 0.234375 0.5 0.234375q0.40625 0 0.671875 -0.265625l0.296875 0.75q-0.421875 0.40625 -1.203125 0.40625zm2.793457 -7.515625q-0.28125 0 -0.484375 -0.1875q-0.1875 -0.203125 -0.1875 -0.484375q0 -0.265625 0.1875 -0.46875q0.203125 -0.203125 0.484375 -0.203125q0.265625 0 0.46875 0.203125q0.203125 0.203125 0.203125 0.46875q0 0.28125 -0.203125 0.484375q-0.203125 0.1875 -0.46875 0.1875zm-0.5 7.359375l0 -6.4375l1.0 0l0 6.4375l-1.0 0zm4.71756 0l-2.671875 -6.4375l1.078125 0l2.140625 5.28125l2.125 -5.28125l1.09375 0l-2.671875 6.4375l-1.09375 0zm7.7182617 0.15625q-1.453125 0 -2.375 -0.9375q-0.90625 -0.953125 -0.90625 -2.4375q0 -1.4375 0.90625 -2.40625q0.90625 -0.96875 2.265625 -0.96875q1.390625 0 2.234375 0.96875q0.859375 0.953125 0.859375 2.484375l0 0.25l-5.21875 0q0.0625 0.984375 0.71875 1.609375q0.65625 0.609375 1.609375 0.609375q1.171875 0 1.984375 -0.8125l0.484375 0.65625q-0.984375 0.984375 -2.5625 0.984375zm2.0 -3.78125q0 -0.890625 -0.59375 -1.515625q-0.578125 -0.625 -1.53125 -0.625q-0.890625 0 -1.484375 0.625q-0.59375 0.625 -0.625 1.515625l4.234375 0z" fill-rule="nonzero"/><path fill="#000000" d="m263.6502 91.5147l0 -0.953125q-0.375 0.484375 -0.9375 0.796875q-0.5625 0.3125 -1.25 0.3125q-1.28125 0 -2.078125 -0.90625q-0.78125 -0.921875 -0.78125 -2.46875q0 -1.546875 0.796875 -2.453125q0.796875 -0.921875 2.0625 -0.921875q0.65625 0 1.21875 0.296875q0.578125 0.296875 0.96875 0.828125l0 -3.421875l0.984375 0l0 8.890625l-0.984375 0zm-1.9375 -0.734375q0.59375 0 1.125 -0.28125q0.53125 -0.296875 0.8125 -0.734375l0 -2.921875q-0.28125 -0.421875 -0.8125 -0.71875q-0.53125 -0.3125 -1.125 -0.3125q-0.9375 0 -1.5 0.6875q-0.5625 0.671875 -0.5625 1.796875q0 1.109375 0.546875 1.796875q0.5625 0.6875 1.515625 0.6875zm8.96051 0.734375l0 -0.734375q-0.8125 0.890625 -2.140625 0.890625q-0.96875 0 -1.609375 -0.609375q-0.640625 -0.609375 -0.640625 -1.515625q0 -0.9375 0.625 -1.53125q0.640625 -0.59375 1.625 -0.59375q1.390625 0 2.140625 0.875l0 -1.15625q0 -0.65625 -0.46875 -1.0q-0.453125 -0.359375 -1.15625 -0.359375q-1.140625 0 -1.984375 0.890625l-0.46875 -0.6875q1.03125 -1.0625 2.578125 -1.0625q1.1875 0 1.84375 0.578125q0.65625 0.5625 0.65625 1.59375l0 4.421875l-1.0 0zm-1.78125 -0.5625q1.1875 0 1.78125 -0.796875l0 -1.21875q-0.59375 -0.796875 -1.78125 -0.796875q-0.703125 0 -1.140625 0.40625q-0.4375 0.390625 -0.4375 1.015625q0 0.609375 0.4375 1.0q0.4375 0.390625 1.140625 0.390625zm6.3988953 0.71875q-1.421875 0 -1.421875 -1.5l0 -4.21875l-1.0625 0l0 -0.875l1.0625 0l0 -1.765625l1.0 0l0 1.765625l1.296875 0l0 0.875l-1.296875 0l0 4.0q0 0.359375 0.15625 0.59375q0.15625 0.234375 0.5 0.234375q0.40625 0 0.671875 -0.265625l0.296875 0.75q-0.421875 0.40625 -1.203125 0.40625zm6.324707 -0.15625l0 -0.734375q-0.8125 0.890625 -2.140625 0.890625q-0.96875 0 -1.609375 -0.609375q-0.640625 -0.609375 -0.640625 -1.515625q0 -0.9375 0.625 -1.53125q0.640625 -0.59375 1.625 -0.59375q1.390625 0 2.140625 0.875l0 -1.15625q0 -0.65625 -0.46875 -1.0q-0.453125 -0.359375 -1.15625 -0.359375q-1.140625 0 -1.984375 0.890625l-0.46875 -0.6875q1.03125 -1.0625 2.578125 -1.0625q1.1875 0 1.84375 0.578125q0.65625 0.5625 0.65625 1.59375l0 4.421875l-1.0 0zm-1.78125 -0.5625q1.1875 0 1.78125 -0.796875l0 -1.21875q-0.59375 -0.796875 -1.78125 -0.796875q-0.703125 0 -1.140625 0.40625q-0.4375 0.390625 -0.4375 1.015625q0 0.609375 0.4375 1.0q0.4375 0.390625 1.140625 0.390625zm15.97818 0.5625l0 -4.375q0 -1.328125 -1.1875 -1.328125q-0.5 0 -0.984375 0.296875q-0.46875 0.296875 -0.71875 0.6875l0 4.71875l-1.0 0l0 -4.375q0 -1.328125 -1.1875 -1.328125q-0.484375 0 -0.953125 0.3125q-0.46875 0.296875 -0.734375 0.6875l0 4.703125l-1.0 0l0 -6.4375l1.0 0l0 0.9375q0.21875 -0.390625 0.84375 -0.734375q0.640625 -0.359375 1.234375 -0.359375q0.75 0 1.171875 0.34375q0.421875 0.34375 0.5625 0.859375q0.328125 -0.53125 0.9375 -0.859375q0.625 -0.34375 1.21875 -0.34375q1.796875 0 1.796875 1.9375l0 4.65625l-1.0 0zm5.8159485 0.15625q-1.40625 0 -2.296875 -0.953125q-0.890625 -0.953125 -0.890625 -2.421875q0 -1.5 0.890625 -2.4375q0.890625 -0.9375 2.296875 -0.9375q1.40625 0 2.296875 0.9375q0.890625 0.9375 0.890625 2.4375q0 1.46875 -0.890625 2.421875q-0.890625 0.953125 -2.296875 0.953125zm0 -0.890625q0.9375 0 1.53125 -0.6875q0.59375 -0.703125 0.59375 -1.796875q0 -1.09375 -0.59375 -1.78125q-0.59375 -0.703125 -1.53125 -0.703125q-0.9375 0 -1.546875 0.703125q-0.59375 0.6875 -0.59375 1.78125q0 1.09375 0.59375 1.796875q0.59375 0.6875 1.546875 0.6875zm9.483032 0.734375l0 -0.953125q-0.375 0.484375 -0.9375 0.796875q-0.5625 0.3125 -1.25 0.3125q-1.28125 0 -2.078125 -0.90625q-0.78125 -0.921875 -0.78125 -2.46875q0 -1.546875 0.796875 -2.453125q0.796875 -0.921875 2.0625 -0.921875q0.65625 0 1.21875 0.296875q0.578125 0.296875 0.96875 0.828125l0 -3.421875l0.984375 0l0 8.890625l-0.984375 0zm-1.9375 -0.734375q0.59375 0 1.125 -0.28125q0.53125 -0.296875 0.8125 -0.734375l0 -2.921875q-0.28125 -0.421875 -0.8125 -0.71875q-0.53125 -0.3125 -1.125 -0.3125q-0.9375 0 -1.5 0.6875q-0.5625 0.671875 -0.5625 1.796875q0 1.109375 0.546875 1.796875q0.5625 0.6875 1.515625 0.6875zm7.835541 0.890625q-1.453125 0 -2.375 -0.9375q-0.90625 -0.953125 -0.90625 -2.4375q0 -1.4375 0.90625 -2.40625q0.90625 -0.96875 2.265625 -0.96875q1.390625 0 2.234375 0.96875q0.859375 0.953125 0.859375 2.484375l0 0.25l-5.21875 0q0.0625 0.984375 0.71875 1.609375q0.65625 0.609375 1.609375 0.609375q1.171875 0 1.984375 -0.8125l0.484375 0.65625q-0.984375 0.984375 -2.5625 0.984375zm2.0 -3.78125q0 -0.890625 -0.59375 -1.515625q-0.578125 -0.625 -1.53125 -0.625q-0.890625 0 -1.484375 0.625q-0.59375 0.625 -0.625 1.515625l4.234375 0zm2.5974426 3.625l0 -8.890625l1.0 0l0 8.890625l-1.0 0z" fill-rule="nonzero"/><path fill="#000000" d="m263.2435 100.15533q-0.28125 0 -0.484375 -0.1875q-0.1875 -0.203125 -0.1875 -0.484375q0 -0.265625 0.1875 -0.46875q0.203125 -0.203125 0.484375 -0.203125q0.265625 0 0.46875 0.203125q0.203125 0.203125 0.203125 0.46875q0 0.28125 -0.203125 0.484375q-0.203125 0.1875 -0.46875 0.1875zm-0.5 7.359375l0 -6.4375l1.0 0l0 6.4375l-1.0 0zm7.34256 0l0 -4.21875q0 -0.84375 -0.390625 -1.15625q-0.390625 -0.328125 -1.046875 -0.328125q-0.5625 0 -1.109375 0.296875q-0.53125 0.296875 -0.796875 0.703125l0 4.703125l-1.0 0l0 -6.4375l1.0 0l0 0.9375q0.40625 -0.484375 1.015625 -0.78125q0.609375 -0.3125 1.28125 -0.3125q2.046875 0 2.046875 2.078125l0 4.515625l-1.0 0zm8.46991 0.15625q-1.625 0 -2.59375 -1.015625l0.515625 -0.71875q0.328125 0.375 0.890625 0.65625q0.5625 0.265625 1.234375 0.265625q0.75 0 1.125 -0.3125q0.390625 -0.3125 0.390625 -0.796875q0 -0.421875 -0.421875 -0.65625q-0.40625 -0.25 -1.5625 -0.53125q-0.96875 -0.1875 -1.484375 -0.625q-0.515625 -0.4375 -0.515625 -1.171875q0 -0.8125 0.65625 -1.328125q0.65625 -0.515625 1.75 -0.515625q1.453125 0 2.375 0.921875l-0.453125 0.703125q-0.296875 -0.34375 -0.796875 -0.578125q-0.5 -0.234375 -1.125 -0.234375q-0.671875 0 -1.046875 0.296875q-0.375 0.28125 -0.375 0.71875q0 0.375 0.421875 0.609375q0.421875 0.21875 1.5625 0.46875q0.984375 0.21875 1.484375 0.6875q0.515625 0.453125 0.515625 1.21875q0 0.890625 -0.703125 1.421875q-0.6875 0.515625 -1.84375 0.515625zm5.791321 0q-1.421875 0 -1.421875 -1.5l0 -4.21875l-1.0625 0l0 -0.875l1.0625 0l0 -1.765625l1.0 0l0 1.765625l1.296875 0l0 0.875l-1.296875 0l0 4.0q0 0.359375 0.15625 0.59375q0.15625 0.234375 0.5 0.234375q0.40625 0 0.671875 -0.265625l0.296875 0.75q-0.421875 0.40625 -1.203125 0.40625zm5.105957 0q-1.40625 0 -2.296875 -0.953125q-0.890625 -0.953125 -0.890625 -2.421875q0 -1.5 0.890625 -2.4375q0.890625 -0.9375 2.296875 -0.9375q1.40625 0 2.296875 0.9375q0.890625 0.9375 0.890625 2.4375q0 1.46875 -0.890625 2.421875q-0.890625 0.953125 -2.296875 0.953125zm0 -0.890625q0.9375 0 1.53125 -0.6875q0.59375 -0.703125 0.59375 -1.796875q0 -1.09375 -0.59375 -1.78125q-0.59375 -0.703125 -1.53125 -0.703125q-0.9375 0 -1.546875 0.703125q-0.59375 0.6875 -0.59375 1.78125q0 1.09375 0.59375 1.796875q0.59375 0.6875 1.546875 0.6875zm4.811157 0.734375l0 -6.4375l1.0 0l0 1.046875q0.890625 -1.1875 2.140625 -1.1875l0 1.03125l-0.390625 -0.03125q-0.453125 0 -1.0 0.328125q-0.546875 0.3125 -0.75 0.6875l0 4.5625l-1.0 0zm8.429504 0l0 -0.734375q-0.8125 0.890625 -2.140625 0.890625q-0.96875 0 -1.609375 -0.609375q-0.640625 -0.609375 -0.640625 -1.515625q0 -0.9375 0.625 -1.53125q0.640625 -0.59375 1.625 -0.59375q1.390625 0 2.140625 0.875l0 -1.15625q0 -0.65625 -0.46875 -1.0q-0.453125 -0.359375 -1.15625 -0.359375q-1.140625 0 -1.984375 0.890625l-0.46875 -0.6875q1.03125 -1.0625 2.578125 -1.0625q1.1875 0 1.84375 0.578125q0.65625 0.5625 0.65625 1.59375l0 4.421875l-1.0 0zm-1.78125 -0.5625q1.1875 0 1.78125 -0.796875l0 -1.21875q-0.59375 -0.796875 -1.78125 -0.796875q-0.703125 0 -1.140625 0.40625q-0.4375 0.390625 -0.4375 1.015625q0 0.609375 0.4375 1.0q0.4375 0.390625 1.140625 0.390625zm7.3520203 3.171875q-0.8125 0 -1.421875 -0.203125q-0.59375 -0.1875 -1.171875 -0.75l0.515625 -0.75q0.390625 0.484375 0.890625 0.671875q0.5 0.203125 1.1875 0.203125q1.0 0 1.53125 -0.515625q0.546875 -0.5 0.546875 -1.40625l0 -0.921875q-0.359375 0.484375 -0.921875 0.8125q-0.5625 0.328125 -1.25 0.328125q-1.296875 0 -2.078125 -0.921875q-0.78125 -0.921875 -0.78125 -2.40625q0 -1.546875 0.796875 -2.4375q0.796875 -0.90625 2.0625 -0.90625q1.34375 0 2.171875 1.125l0 -0.96875l1.0 0l0 6.25q0 1.359375 -0.8125 2.078125q-0.796875 0.71875 -2.265625 0.71875zm0.15625 -3.40625q0.546875 0 1.078125 -0.296875q0.546875 -0.296875 0.84375 -0.765625l0 -2.8125q-0.296875 -0.453125 -0.84375 -0.734375q-0.546875 -0.296875 -1.078125 -0.296875q-0.953125 0 -1.515625 0.6875q-0.546875 0.671875 -0.546875 1.765625q0 1.109375 0.5625 1.78125q0.578125 0.671875 1.5 0.671875zm7.8222046 0.953125q-1.453125 0 -2.375 -0.9375q-0.90625 -0.953125 -0.90625 -2.4375q0 -1.4375 0.90625 -2.40625q0.90625 -0.96875 2.265625 -0.96875q1.390625 0 2.234375 0.96875q0.859375 0.953125 0.859375 2.484375l0 0.25l-5.21875 0q0.0625 0.984375 0.71875 1.609375q0.65625 0.609375 1.609375 0.609375q1.171875 0 1.984375 -0.8125l0.484375 0.65625q-0.984375 0.984375 -2.5625 0.984375zm2.0 -3.78125q0 -0.890625 -0.59375 -1.515625q-0.578125 -0.625 -1.53125 -0.625q-0.890625 0 -1.484375 0.625q-0.59375 0.625 -0.625 1.515625l4.234375 0z" fill-rule="nonzero"/><path fill="#000000" fill-opacity="0.0" d="m335.85776 69.63641l106.48816 1.1653519" fill-rule="evenodd"/><path stroke="#595959" stroke-width="4.0" stroke-linejoin="round" stroke-linecap="butt" d="m335.85773 69.63641l82.489624 0.9027252" fill-rule="evenodd"/><path fill="#595959" stroke="#595959" stroke-width="4.0" stroke-linecap="butt" d="m418.27505 77.14567l18.223602 -6.4078903l-18.07901 -6.805176z" fill-rule="evenodd"/><path fill="#000000" fill-opacity="0.0" d="m464.7139 49.90026l83.55905 0l0 35.55906l-83.55905 0z" fill-rule="evenodd"/><path fill="#000000" d="m474.76077 71.700264l0 -8.890629l1.09375 0l0 7.906254l4.140625 0l0 0.984375l-5.234375 0zm7.250458 -7.359375q-0.28125 0 -0.484375 -0.1875q-0.1875 -0.20312881 -0.1875 -0.4843788q0 -0.265625 0.1875 -0.46875q0.203125 -0.203125 0.484375 -0.203125q0.265625 0 0.46875 0.203125q0.203125 0.203125 0.203125 0.46875q0 0.28125 -0.203125 0.4843788q-0.203125 0.1875 -0.46875 0.1875zm-0.5 7.359375l0 -6.4375l1.0 0l0 6.4375l-1.0 0zm4.71756 0l-2.671875 -6.4375l1.078125 0l2.140625 5.28125l2.125 -5.28125l1.09375 0l-2.671875 6.4375l-1.09375 0zm7.7182617 0.15625q-1.453125 0 -2.375 -0.9375q-0.90625 -0.953125 -0.90625 -2.4375q0 -1.4375 0.90625 -2.40625q0.90625 -0.96875 2.265625 -0.96875q1.390625 0 2.234375 0.96875q0.859375 0.953125 0.859375 2.484375l0 0.25l-5.21875 0q0.0625 0.984375 0.71875 1.609375q0.65625 0.609375 1.609375 0.609375q1.171875 0 1.984375 -0.8125l0.484375 0.65625q-0.984375 0.984375 -2.5625 0.984375zm2.0 -3.78125q0 -0.890625 -0.59375 -1.515625q-0.578125 -0.625 -1.53125 -0.625q-0.890625 0 -1.484375 0.625q-0.59375 0.625 -0.625 1.515625l4.234375 0zm8.067352 3.78125q-1.625 0 -2.59375 -1.015625l0.515625 -0.71875q0.328125 0.375 0.890625 0.65625q0.5625 0.265625 1.234375 0.265625q0.75 0 1.125 -0.3125q0.390625 -0.3125 0.390625 -0.796875q0 -0.421875 -0.421875 -0.65625q-0.40625 -0.25 -1.5625 -0.53125q-0.96875 -0.1875 -1.484375 -0.625q-0.515625 -0.4375 -0.515625 -1.171875q0 -0.8125 0.65625 -1.328125q0.65625 -0.515625 1.75 -0.515625q1.453125 0 2.375 0.921875l-0.453125 0.703125q-0.296875 -0.34375 -0.796875 -0.578125q-0.5 -0.234375 -1.125 -0.234375q-0.671875 0 -1.046875 0.296875q-0.375 0.28125 -0.375 0.71875q0 0.375 0.421875 0.609375q0.421875 0.21875 1.5625 0.46875q0.984375 0.21875 1.484375 0.6875q0.515625 0.453125 0.515625 1.21875q0 0.890625 -0.703125 1.421875q-0.6875 0.515625 -1.84375 0.515625zm5.7912903 0q-1.421875 0 -1.421875 -1.5l0 -4.21875l-1.0625 0l0 -0.875l1.0625 0l0 -1.7656288l1.0 0l0 1.7656288l1.296875 0l0 0.875l-1.296875 0l0 4.0q0 0.359375 0.15625 0.59375q0.15625 0.234375 0.5 0.234375q0.40625 0 0.671875 -0.265625l0.296875 0.75q-0.421875 0.40625 -1.203125 0.40625zm6.3247375 -0.15625l0 -0.734375q-0.8125 0.890625 -2.140625 0.890625q-0.96875 0 -1.609375 -0.609375q-0.6406555 -0.609375 -0.6406555 -1.515625q0 -0.9375 0.6250305 -1.53125q0.640625 -0.59375 1.625 -0.59375q1.390625 0 2.140625 0.875l0 -1.15625q0 -0.65625 -0.46875 -1.0q-0.453125 -0.359375 -1.15625 -0.359375q-1.140625 0 -1.984375 0.890625l-0.46875 -0.6875q1.03125 -1.0625 2.578125 -1.0625q1.1875 0 1.84375 0.578125q0.65625 0.5625 0.65625 1.59375l0 4.421875l-1.0 0zm-1.78125 -0.5625q1.1875 0 1.78125 -0.796875l0 -1.21875q-0.59375 -0.796875 -1.78125 -0.796875q-0.703125 0 -1.140625 0.40625q-0.4375 0.390625 -0.4375 1.015625q0 0.609375 0.4375 1.0q0.4375 0.390625 1.140625 0.390625zm6.3988647 0.71875q-1.421875 0 -1.421875 -1.5l0 -4.21875l-1.0625 0l0 -0.875l1.0625 0l0 -1.7656288l1.0 0l0 1.7656288l1.296875 0l0 0.875l-1.296875 0l0 4.0q0 0.359375 0.15625 0.59375q0.15625 0.234375 0.5 0.234375q0.40625 0 0.671875 -0.265625l0.296875 0.75q-0.421875 0.40625 -1.203125 0.40625zm5.199707 0q-1.453125 0 -2.375 -0.9375q-0.90625 -0.953125 -0.90625 -2.4375q0 -1.4375 0.90625 -2.40625q0.90625 -0.96875 2.265625 -0.96875q1.390625 0 2.234375 0.96875q0.859375 0.953125 0.859375 2.484375l0 0.25l-5.21875 0q0.0625 0.984375 0.71875 1.609375q0.65625 0.609375 1.609375 0.609375q1.171875 0 1.984375 -0.8125l0.484375 0.65625q-0.984375 0.984375 -2.5625 0.984375zm2.0 -3.78125q0 -0.890625 -0.59375 -1.515625q-0.578125 -0.625 -1.53125 -0.625q-0.890625 0 -1.484375 0.625q-0.59375 0.625 -0.625 1.515625l4.234375 0z" fill-rule="nonzero"/></g></svg>