<svg version="1.1" viewBox="0.0 0.0 533.6850393700787 132.11023622047244" fill="none" stroke="none" stroke-linecap="square" stroke-miterlimit="10" xmlns:xlink="http://www.w3.org/1999/xlink" xmlns="http://www.w3.org/2000/svg"><clipPath id="p.0"><path d="m0 0l533.68506 0l0 132.11023l-533.68506 0l0 -132.11023z" clip-rule="nonzero"/></clipPath><g clip-path="url(#p.0)"><path fill="#ffffff" d="m0 0l533.68506 0l0 132.11023l-533.68506 0z" fill-rule="evenodd"/><path fill="#4285f4" d="m7.4612837 85.27504l0 -15.25251l0 0c0 -8.423729 17.34763 -15.252514 38.747013 -15.252514c21.399384 0 38.747017 6.828785 38.747017 15.252514l0 15.25251z" fill-rule="evenodd"/><path stroke="#ffffff" stroke-width="8.0" stroke-linejoin="round" stroke-linecap="butt" d="m7.4612837 85.27504l0 -15.25251l0 0c0 -8.423729 17.34763 -15.252514 38.747013 -15.252514c21.399384 0 38.747017 6.828785 38.747017 15.252514l0 15.25251z" fill-rule="evenodd"/><path fill="#4285f4" d="m20.717688 34.069126l0 0c0 -14.078075 11.412535 -25.49061 25.49061 -25.49061l0 0c6.7605286 0 13.244167 2.6856098 18.024582 7.4660263c4.7804184 4.7804165 7.4660263 11.264053 7.4660263 18.024584l0 0c0 14.078075 -11.412533 25.490608 -25.490608 25.490608l0 0c-14.078075 0 -25.49061 -11.412533 -25.49061 -25.490608z" fill-rule="evenodd"/><path stroke="#ffffff" stroke-width="8.0" stroke-linejoin="round" stroke-linecap="butt" d="m20.717688 34.069126l0 0c0 -14.078075 11.412535 -25.49061 25.49061 -25.49061l0 0c6.7605286 0 13.244167 2.6856098 18.024582 7.4660263c4.7804184 4.7804165 7.4660263 11.264053 7.4660263 18.024584l0 0c0 14.078075 -11.412533 25.490608 -25.490608 25.490608l0 0c-14.078075 0 -25.49061 -11.412533 -25.49061 -25.490608z" fill-rule="evenodd"/><path fill="#4285f4" d="m72.86778 92.6891l0 -15.25251l0 0c0 -8.423729 17.347626 -15.25251 38.74701 -15.25251c21.399384 0 38.74701 6.828781 38.74701 15.25251l0 15.25251z" fill-rule="evenodd"/><path stroke="#ffffff" stroke-width="8.0" stroke-linejoin="round" stroke-linecap="butt" d="m72.86778 92.6891l0 -15.25251l0 0c0 -8.423729 17.347626 -15.25251 38.74701 -15.25251c21.399384 0 38.74701 6.828781 38.74701 15.25251l0 15.25251z" fill-rule="evenodd"/><path fill="#4285f4" d="m86.12418 41.48319l0 0c0 -14.0780735 11.412537 -25.490608 25.490608 -25.490608l0 0c6.7605286 0 13.244171 2.6856098 18.024582 7.4660263c4.780426 4.7804165 7.466034 11.264053 7.466034 18.024582l0 0c0 14.078075 -11.412537 25.490612 -25.490616 25.490612l0 0c-14.078072 0 -25.490608 -11.412537 -25.490608 -25.490612z" fill-rule="evenodd"/><path stroke="#ffffff" stroke-width="8.0" stroke-linejoin="round" stroke-linecap="butt" d="m86.12418 41.48319l0 0c0 -14.0780735 11.412537 -25.490608 25.490608 -25.490608l0 0c6.7605286 0 13.244171 2.6856098 18.024582 7.4660263c4.780426 4.7804165 7.466034 11.264053 7.466034 18.024582l0 0c0 14.078075 -11.412537 25.490612 -25.490616 25.490612l0 0c-14.078072 0 -25.490608 -11.412537 -25.490608 -25.490612z" fill-rule="evenodd"/><path fill="#4285f4" d="m39.094757 124.57171l0 -15.25251l0 0c0 -8.423729 17.34763 -15.25251 38.74701 -15.25251c21.399391 0 38.747017 6.828781 38.747017 15.25251l0 15.25251z" fill-rule="evenodd"/><path stroke="#ffffff" stroke-width="8.0" stroke-linejoin="round" stroke-linecap="butt" d="m39.094757 124.57171l0 -15.25251l0 0c0 -8.423729 17.34763 -15.25251 38.74701 -15.25251c21.399391 0 38.747017 6.828781 38.747017 15.25251l0 15.25251z" fill-rule="evenodd"/><path fill="#4285f4" d="m52.351162 73.36579l0 0c0 -14.078072 11.412533 -25.490608 25.490604 -25.490608l0 0c6.760536 0 13.244171 2.6856117 18.02459 7.4660263c4.780411 4.7804184 7.4660263 11.264053 7.4660263 18.024582l0 0c0 14.078079 -11.412537 25.490616 -25.490616 25.490616l0 0c-14.078072 0 -25.490604 -11.412537 -25.490604 -25.490616z" fill-rule="evenodd"/><path stroke="#ffffff" stroke-width="8.0" stroke-linejoin="round" stroke-linecap="butt" d="m52.351162 73.36579l0 0c0 -14.078072 11.412533 -25.490608 25.490604 -25.490608l0 0c6.760536 0 13.244171 2.6856117 18.02459 7.4660263c4.780411 4.7804184 7.4660263 11.264053 7.4660263 18.024582l0 0c0 14.078079 -11.412537 25.490616 -25.490616 25.490616l0 0c-14.078072 0 -25.490604 -11.412537 -25.490604 -25.490616z" fill-rule="evenodd"/><path fill="#000000" fill-opacity="0.0" d="m137.10541 41.48319l108.28346 13.228348" fill-rule="evenodd"/><path stroke="#595959" stroke-width="2.0" stroke-linejoin="round" stroke-linecap="butt" d="m137.10541 41.483192l96.37201 11.773193" fill-rule="evenodd"/><path fill="#595959" stroke="#595959" stroke-width="2.0" stroke-linecap="butt" d="m233.07683 56.535473l9.409805 -2.178482l-8.608627 -4.379692z" fill-rule="evenodd"/><path fill="#000000" fill-opacity="0.0" d="m150.3618 77.43659l94.26773 -7.81102" fill-rule="evenodd"/><path stroke="#595959" stroke-width="2.0" stroke-linejoin="round" stroke-linecap="butt" d="m150.3618 77.43659l82.308716 -6.820099" fill-rule="evenodd"/><path fill="#595959" stroke="#595959" stroke-width="2.0" stroke-linecap="butt" d="m232.94331 73.908676l8.7724 -4.0416718l-9.317993 -2.542694z" fill-rule="evenodd"/><path fill="#000000" fill-opacity="0.0" d="m116.58878 109.3192l128.15747 -22.803154" fill-rule="evenodd"/><path stroke="#595959" stroke-width="2.0" stroke-linejoin="round" stroke-linecap="butt" d="m116.58879 109.3192l116.34303 -20.701004" fill-rule="evenodd"/><path fill="#595959" stroke="#595959" stroke-width="2.0" stroke-linecap="butt" d="m233.51053 91.870575l8.357147 -4.8423386l-9.514542 -1.6624222z" fill-rule="evenodd"/><path fill="#000000" fill-opacity="0.0" d="m145.04132 15.687689l109.6693 0l0 31.590551l-109.6693 0z" fill-rule="evenodd"/><path fill="#595959" d="m158.7132 37.643936q-1.71875 0 -2.671875 -0.9375q-0.953125 -0.9375 -0.953125 -2.671875l0 -5.437498l1.09375 0l0 5.406248q0 1.234375 0.640625 1.953125q0.640625 0.703125 1.890625 0.703125q1.234375 0 1.875 -0.703125q0.640625 -0.71875 0.640625 -1.953125l0 -5.406248l1.109375 0l0 5.421873q0 1.734375 -0.9375 2.6875q-0.9375 0.9375 -2.6875 0.9375zm5.704651 -0.15625l0 -8.890623l1.09375 0l0 8.890623l-1.09375 0z" fill-rule="nonzero"/><path fill="#000000" fill-opacity="0.0" d="m143.79745 48.579292l46.803146 0l0 31.590553l-46.803146 0z" fill-rule="evenodd"/><path fill="#595959" d="m158.04745 70.53554q-1.953125 0 -3.265625 -1.28125q-1.296875 -1.296875 -1.296875 -3.3125q0 -2.0156212 1.296875 -3.2968712q1.3125 -1.296875 3.265625 -1.296875q2.125 0 3.375 1.75l-0.9375 0.53125q-0.390625 -0.5625 -1.03125 -0.921875q-0.640625 -0.375 -1.40625 -0.375q-1.484375 0 -2.453125 1.03125q-0.96875 1.0156212 -0.96875 2.5781212q0 1.578125 0.96875 2.59375q0.96875 1.015625 2.453125 1.015625q0.765625 0 1.40625 -0.359375q0.640625 -0.359375 1.03125 -0.9375l0.953125 0.53125q-1.296875 1.75 -3.390625 1.75zm4.806656 -0.15625l0 -8.890621l1.09375 0l0 7.906246l4.140625 0l0 0.984375l-5.234375 0zm6.7973175 0l0 -8.890621l1.09375 0l0 8.890621l-1.09375 0z" fill-rule="nonzero"/><path fill="#000000" fill-opacity="0.0" d="m143.54227 91.730995l90.14172 0l0 31.590553l-90.14172 0z" fill-rule="evenodd"/><path fill="#595959" d="m159.93289 113.531l-0.796875 -1.96875l-4.421875 0l-0.78125 1.96875l-1.265625 0l3.5625 -8.890625l1.375 0l3.59375 8.890625l-1.265625 0zm-3.0 -7.75l-1.890625 4.796875l3.765625 0l-1.875 -4.796875zm9.562988 7.75l0 -0.90625q-0.375 0.421875 -0.984375 0.75q-0.59375 0.3125 -1.3125 0.3125q-2.046875 0 -2.046875 -2.046875l0 -4.546875l1.0 0l0 4.234375q0 0.765625 0.34375 1.125q0.34375 0.34375 1.09375 0.34375q0.59375 0 1.109375 -0.28125q0.515625 -0.296875 0.796875 -0.6875l0 -4.734375l1.0 0l0 6.4375l-1.0 0zm4.6250153 0.15625q-1.421875 0 -1.421875 -1.5l0 -4.21875l-1.0625 0l0 -0.875l1.0625 0l0 -1.765625l1.0 0l0 1.765625l1.296875 0l0 0.875l-1.296875 0l0 4.0q0 0.359375 0.15625 0.59375q0.15625 0.234375 0.5 0.234375q0.40625 0 0.671875 -0.265625l0.296875 0.75q-0.421875 0.40625 -1.203125 0.40625zm5.105957 0q-1.40625 0 -2.296875 -0.953125q-0.890625 -0.953125 -0.890625 -2.421875q0 -1.5 0.890625 -2.4375q0.890625 -0.9375 2.296875 -0.9375q1.40625 0 2.296875 0.9375q0.890625 0.9375 0.890625 2.4375q0 1.46875 -0.890625 2.421875q-0.890625 0.953125 -2.296875 0.953125zm0 -0.890625q0.9375 0 1.53125 -0.6875q0.59375 -0.703125 0.59375 -1.796875q0 -1.09375 -0.59375 -1.78125q-0.59375 -0.703125 -1.53125 -0.703125q-0.9375 0 -1.546875 0.703125q-0.59375 0.6875 -0.59375 1.78125q0 1.09375 0.59375 1.796875q0.59375 0.6875 1.546875 0.6875zm12.576782 0.734375l0 -4.375q0 -1.328125 -1.1875 -1.328125q-0.5 0 -0.984375 0.296875q-0.46875 0.296875 -0.71875 0.6875l0 4.71875l-1.0 0l0 -4.375q0 -1.328125 -1.1875 -1.328125q-0.484375 0 -0.953125 0.3125q-0.46875 0.296875 -0.734375 0.6875l0 4.703125l-1.0 0l0 -6.4375l1.0 0l0 0.9375q0.21875 -0.390625 0.84375 -0.734375q0.640625 -0.359375 1.234375 -0.359375q0.75 0 1.171875 0.34375q0.421875 0.34375 0.5625 0.859375q0.328125 -0.53125 0.9375 -0.859375q0.625 -0.34375 1.21875 -0.34375q1.796875 0 1.796875 1.9375l0 4.65625l-1.0 0zm7.0347137 0l0 -0.734375q-0.8125 0.890625 -2.140625 0.890625q-0.96875 0 -1.609375 -0.609375q-0.640625 -0.609375 -0.640625 -1.515625q0 -0.9375 0.625 -1.53125q0.640625 -0.59375 1.625 -0.59375q1.390625 0 2.140625 0.875l0 -1.15625q0 -0.65625 -0.46875 -1.0q-0.453125 -0.359375 -1.15625 -0.359375q-1.140625 0 -1.984375 0.890625l-0.46875 -0.6875q1.03125 -1.0625 2.578125 -1.0625q1.1875 0 1.84375 0.578125q0.65625 0.5625 0.65625 1.59375l0 4.421875l-1.0 0zm-1.78125 -0.5625q1.1875 0 1.78125 -0.796875l0 -1.21875q-0.59375 -0.796875 -1.78125 -0.796875q-0.703125 0 -1.140625 0.40625q-0.4375 0.390625 -0.4375 1.015625q0 0.609375 0.4375 1.0q0.4375 0.390625 1.140625 0.390625zm6.3988953 0.71875q-1.421875 0 -1.421875 -1.5l0 -4.21875l-1.0625 0l0 -0.875l1.0625 0l0 -1.765625l1.0 0l0 1.765625l1.296875 0l0 0.875l-1.296875 0l0 4.0q0 0.359375 0.15625 0.59375q0.15625 0.234375 0.5 0.234375q0.40625 0 0.671875 -0.265625l0.296875 0.75q-0.421875 0.40625 -1.203125 0.40625zm2.793457 -7.515625q-0.28125 0 -0.484375 -0.1875q-0.1875 -0.203125 -0.1875 -0.484375q0 -0.265625 0.1875 -0.46875q0.203125 -0.203125 0.484375 -0.203125q0.265625 0 0.46875 0.203125q0.203125 0.203125 0.203125 0.46875q0 0.28125 -0.203125 0.484375q-0.203125 0.1875 -0.46875 0.1875zm-0.5 7.359375l0 -6.4375l1.0 0l0 6.4375l-1.0 0zm5.81131 0.15625q-1.40625 0 -2.296875 -0.953125q-0.890625 -0.953125 -0.890625 -2.421875q0 -1.5 0.890625 -2.4375q0.890625 -0.9375 2.296875 -0.9375q1.40625 0 2.296875 0.9375q0.890625 0.9375 0.890625 2.4375q0 1.46875 -0.890625 2.421875q-0.890625 0.953125 -2.296875 0.953125zm0 -0.890625q0.9375 0 1.53125 -0.6875q0.59375 -0.703125 0.59375 -1.796875q0 -1.09375 -0.59375 -1.78125q-0.59375 -0.703125 -1.53125 -0.703125q-0.9375 0 -1.546875 0.703125q-0.59375 0.6875 -0.59375 1.78125q0 1.09375 0.59375 1.796875q0.59375 0.6875 1.546875 0.6875zm9.154907 0.734375l0 -4.21875q0 -0.84375 -0.390625 -1.15625q-0.390625 -0.328125 -1.046875 -0.328125q-0.5625 0 -1.109375 0.296875q-0.53125 0.296875 -0.796875 0.703125l0 4.703125l-1.0 0l0 -6.4375l1.0 0l0 0.9375q0.40625 -0.484375 1.015625 -0.78125q0.609375 -0.3125 1.28125 -0.3125q2.046875 0 2.046875 2.078125l0 4.515625l-1.0 0z" fill-rule="nonzero"/><path fill="#000000" fill-opacity="0.0" d="m415.38675 56.22383l0 0c-0.99328613 -6.4636726 2.2678833 -12.862312 8.399628 -16.480743c6.1317444 -3.618435 14.058746 -3.8220634 20.417236 -0.5244827l0 0c2.2523804 -3.7582474 6.374878 -6.353054 11.120544 -6.99955c4.7456665 -0.6464939 9.557068 0.7312622 12.978882 3.7165222l0 0c1.9187317 -3.407467 5.6861877 -5.69685 9.965515 -6.0557556c4.279297 -0.3589058 8.464813 1.2634583 11.07132 4.2913933l0 0c3.4664612 -3.6119041 8.98172 -5.1326675 14.159271 -3.9042435c5.1775208 1.2284222 9.087463 4.9853973 10.037842 9.645256l0 0c4.2470093 1.0257988 7.784729 3.6335068 9.699036 7.1493835c1.9143066 3.5158768 2.017456 7.5950203 0.2828369 11.18351l0 0c4.182068 4.819729 5.1603394 11.241962 2.5697632 16.870037c-2.5905762 5.6280746 -8.360779 9.616432 -15.157318 10.476692c-0.047912598 5.2821503 -3.3194275 10.128983 -8.553528 12.672325c-5.234131 2.543335 -11.613525 2.386032 -16.679321 -0.4112854l0 0c-2.1577759 6.3262863 -8.23114 10.981102 -15.596222 11.953407c-7.365082 0.97229767 -14.701508 -1.9122238 -18.83966 -7.4073486l0 0c-5.0725403 2.7085648 -11.15918 3.4888153 -16.886871 2.1647491c-5.7276917 -1.3240738 -10.613983 -4.64093 -13.55661 -9.202362l0 0c-5.183502 0.537117 -10.195251 -1.84095 -12.547882 -5.953987c-2.3526611 -4.1130295 -1.5454102 -9.085457 2.0210876 -12.449486l0 0c-4.62381 -2.4098206 -6.9831543 -7.191719 -5.847748 -11.852119c1.135437 -4.6603966 5.5083313 -8.143227 10.83844 -8.632336z" fill-rule="evenodd"/><path fill="#000000" fill-opacity="0.0" d="m410.2936 76.957405l0 0c2.1820068 1.137207 4.7026978 1.6530685 7.223694 1.4783249m3.301941 16.925552c1.084137 -0.112335205 2.146759 -0.35022736 3.1605225 -0.70752716m27.281464 7.74485c-0.7625122 -1.0125275 -1.4009094 -2.0944977 -1.9043274 -3.2274857m36.341522 -1.3187637l0 0c0.39337158 -1.1533813 0.6482849 -2.340454 0.7604065 -3.54142m24.471497 -8.719177c0.050994873 -5.623665 -3.5561829 -10.772743 -9.272095 -13.235565m21.859528 -14.110573c-0.9257202 1.9149628 -2.3388672 3.6137009 -4.128662 4.9630203m-5.852295 -23.296413l0 0c0.15771484 0.7733078 0.23071289 1.5582352 0.21795654 2.3439064m-24.414703 -8.084682l0 0c-0.8647156 0.90098953 -1.5771179 1.9078369 -2.1150513 2.9891853m-18.921997 -1.2252197l0 0c-0.46081543 0.8183632 -0.80493164 1.6843338 -1.0243835 2.577961m-23.075378 0.70513535l0 0c1.345459 0.69776535 2.5901794 1.5376015 3.7068481 2.5010567m-32.523346 14.504261l0 0c0.13690186 0.8908577 0.35321045 1.7707367 0.6469116 2.6313972" fill-rule="evenodd"/><path stroke="#595959" stroke-width="1.0" stroke-linejoin="round" stroke-linecap="butt" d="m415.38675 56.22383l0 0c-0.99328613 -6.4636726 2.2678833 -12.862312 8.399628 -16.480743c6.1317444 -3.618435 14.058746 -3.8220634 20.417236 -0.5244827l0 0c2.2523804 -3.7582474 6.374878 -6.353054 11.120544 -6.99955c4.7456665 -0.6464939 9.557068 0.7312622 12.978882 3.7165222l0 0c1.9187317 -3.407467 5.6861877 -5.69685 9.965515 -6.0557556c4.279297 -0.3589058 8.464813 1.2634583 11.07132 4.2913933l0 0c3.4664612 -3.6119041 8.98172 -5.1326675 14.159271 -3.9042435c5.1775208 1.2284222 9.087463 4.9853973 10.037842 9.645256l0 0c4.2470093 1.0257988 7.784729 3.6335068 9.699036 7.1493835c1.9143066 3.5158768 2.017456 7.5950203 0.2828369 11.18351l0 0c4.182068 4.819729 5.1603394 11.241962 2.5697632 16.870037c-2.5905762 5.6280746 -8.360779 9.616432 -15.157318 10.476692c-0.047912598 5.2821503 -3.3194275 10.128983 -8.553528 12.672325c-5.234131 2.543335 -11.613525 2.386032 -16.679321 -0.4112854l0 0c-2.1577759 6.3262863 -8.23114 10.981102 -15.596222 11.953407c-7.365082 0.97229767 -14.701508 -1.9122238 -18.83966 -7.4073486l0 0c-5.0725403 2.7085648 -11.15918 3.4888153 -16.886871 2.1647491c-5.7276917 -1.3240738 -10.613983 -4.64093 -13.55661 -9.202362l0 0c-5.183502 0.537117 -10.195251 -1.84095 -12.547882 -5.953987c-2.3526611 -4.1130295 -1.5454102 -9.085457 2.0210876 -12.449486l0 0c-4.62381 -2.4098206 -6.9831543 -7.191719 -5.847748 -11.852119c1.135437 -4.6603966 5.5083313 -8.143227 10.83844 -8.632336z" fill-rule="evenodd"/><path stroke="#595959" stroke-width="1.0" stroke-linejoin="round" stroke-linecap="butt" d="m410.2936 76.957405l0 0c2.1820068 1.137207 4.7026978 1.6530685 7.223694 1.4783249m3.301941 16.925552c1.084137 -0.112335205 2.146759 -0.35022736 3.1605225 -0.70752716m27.281464 7.74485c-0.7625122 -1.0125275 -1.4009094 -2.0944977 -1.9043274 -3.2274857m36.341522 -1.3187637l0 0c0.39337158 -1.1533813 0.6482849 -2.340454 0.7604065 -3.54142m24.471497 -8.719177c0.050994873 -5.623665 -3.5561829 -10.772743 -9.272095 -13.235565m21.859528 -14.110573c-0.9257202 1.9149628 -2.3388672 3.6137009 -4.128662 4.9630203m-5.852295 -23.296413l0 0c0.15771484 0.7733078 0.23071289 1.5582352 0.21795654 2.3439064m-24.414703 -8.084682l0 0c-0.8647156 0.90098953 -1.5771179 1.9078369 -2.1150513 2.9891853m-18.921997 -1.2252197l0 0c-0.46081543 0.8183632 -0.80493164 1.6843338 -1.0243835 2.577961m-23.075378 0.70513535l0 0c1.345459 0.69776535 2.5901794 1.5376015 3.7068481 2.5010567m-32.523346 14.504261l0 0c0.13690186 0.8908577 0.35321045 1.7707367 0.6469116 2.6313972" fill-rule="evenodd"/><path fill="#595959" d="m434.61295 72.57773l0 -8.890629l1.09375 0l0 7.906254l4.140625 0l0 0.984375l-5.234375 0zm7.250458 -7.359375q-0.28125 0 -0.484375 -0.1875q-0.1875 -0.203125 -0.1875 -0.484375q0 -0.265625 0.1875 -0.46875q0.203125 -0.20312881 0.484375 -0.20312881q0.265625 0 0.46875 0.20312881q0.203125 0.203125 0.203125 0.46875q0 0.28125 -0.203125 0.484375q-0.203125 0.1875 -0.46875 0.1875zm-0.5 7.359375l0 -6.4375l1.0 0l0 6.4375l-1.0 0zm4.71756 0l-2.671875 -6.4375l1.078125 0l2.140625 5.28125l2.125 -5.28125l1.09375 0l-2.671875 6.4375l-1.09375 0zm7.7182617 0.15625q-1.453125 0 -2.375 -0.9375q-0.90625 -0.953125 -0.90625 -2.4375q0 -1.4375 0.90625 -2.40625q0.90625 -0.96875 2.265625 -0.96875q1.390625 0 2.234375 0.96875q0.859375 0.953125 0.859375 2.484375l0 0.25l-5.21875 0q0.0625 0.984375 0.71875 1.609375q0.65625 0.609375 1.609375 0.609375q1.171875 0 1.984375 -0.8125l0.484375 0.65625q-0.984375 0.984375 -2.5625 0.984375zm2.0 -3.78125q0 -0.890625 -0.59375 -1.515625q-0.578125 -0.625 -1.53125 -0.625q-0.890625 0 -1.484375 0.625q-0.59375 0.625 -0.625 1.515625l4.234375 0zm8.067352 3.78125q-1.625 0 -2.59375 -1.015625l0.515625 -0.71875q0.328125 0.375 0.890625 0.65625q0.5625 0.265625 1.234375 0.265625q0.75 0 1.125 -0.3125q0.390625 -0.3125 0.390625 -0.796875q0 -0.421875 -0.421875 -0.65625q-0.40625 -0.25 -1.5625 -0.53125q-0.96875 -0.1875 -1.484375 -0.625q-0.515625 -0.4375 -0.515625 -1.171875q0 -0.8125 0.65625 -1.328125q0.65625 -0.515625 1.75 -0.515625q1.453125 0 2.375 0.921875l-0.453125 0.703125q-0.296875 -0.34375 -0.796875 -0.578125q-0.5 -0.234375 -1.125 -0.234375q-0.671875 0 -1.046875 0.296875q-0.375 0.28125 -0.375 0.71875q0 0.375 0.421875 0.609375q0.421875 0.21875 1.5625 0.46875q0.984375 0.21875 1.484375 0.6875q0.515625 0.453125 0.515625 1.21875q0 0.890625 -0.703125 1.421875q-0.6875 0.515625 -1.84375 0.515625zm5.7912903 0q-1.421875 0 -1.421875 -1.5l0 -4.21875l-1.0625 0l0 -0.875l1.0625 0l0 -1.765625l1.0 0l0 1.765625l1.296875 0l0 0.875l-1.296875 0l0 4.0q0 0.359375 0.15625 0.59375q0.15625 0.234375 0.5 0.234375q0.40625 0 0.671875 -0.265625l0.296875 0.75q-0.421875 0.40625 -1.203125 0.40625zm6.324707 -0.15625l0 -0.734375q-0.8125 0.890625 -2.140625 0.890625q-0.96875 0 -1.609375 -0.609375q-0.640625 -0.609375 -0.640625 -1.515625q0 -0.9375 0.625 -1.53125q0.640625 -0.59375 1.625 -0.59375q1.390625 0 2.140625 0.875l0 -1.15625q0 -0.65625 -0.46875 -1.0q-0.453125 -0.359375 -1.15625 -0.359375q-1.140625 0 -1.984375 0.890625l-0.46875 -0.6875q1.03125 -1.0625 2.578125 -1.0625q1.1875 0 1.84375 0.578125q0.65625 0.5625 0.65625 1.59375l0 4.421875l-1.0 0zm-1.78125 -0.5625q1.1875 0 1.78125 -0.796875l0 -1.21875q-0.59375 -0.796875 -1.78125 -0.796875q-0.703125 0 -1.140625 0.40625q-0.4375 0.390625 -0.4375 1.015625q0 0.609375 0.4375 1.0q0.4375 0.390625 1.140625 0.390625zm6.3988953 0.71875q-1.421875 0 -1.421875 -1.5l0 -4.21875l-1.0625 0l0 -0.875l1.0625 0l0 -1.765625l1.0 0l0 1.765625l1.296875 0l0 0.875l-1.296875 0l0 4.0q0 0.359375 0.15625 0.59375q0.15625 0.234375 0.5 0.234375q0.40625 0 0.671875 -0.265625l0.296875 0.75q-0.421875 0.40625 -1.203125 0.40625zm5.199707 0q-1.453125 0 -2.375 -0.9375q-0.90625 -0.953125 -0.90625 -2.4375q0 -1.4375 0.90625 -2.40625q0.90625 -0.96875 2.265625 -0.96875q1.390625 0 2.234375 0.96875q0.859375 0.953125 0.859375 2.484375l0 0.25l-5.21875 0q0.0625 0.984375 0.71875 1.609375q0.65625 0.609375 1.609375 0.609375q1.171875 0 1.984375 -0.8125l0.484375 0.65625q-0.984375 0.984375 -2.5625 0.984375zm2.0 -3.78125q0 -0.890625 -0.59375 -1.515625q-0.578125 -0.625 -1.53125 -0.625q-0.890625 0 -1.484375 0.625q-0.59375 0.625 -0.625 1.515625l4.234375 0z" fill-rule="nonzero"/><path fill="#000000" fill-opacity="0.0" d="m244.63083 33.323246l0 0c0 -10.027601 20.176605 -18.15658 45.065674 -18.15658c24.8891 0 45.065704 8.128979 45.065704 18.15658l0 72.62633c0 10.027603 -20.176605 18.156578 -45.065704 18.156578c-24.889069 0 -45.065674 -8.128975 -45.065674 -18.156578z" fill-rule="evenodd"/><path fill="#000000" fill-opacity="0.0" d="m334.7622 33.323246l0 0c0 10.027603 -20.176605 18.156582 -45.065704 18.156582c-24.889069 0 -45.065674 -8.128979 -45.065674 -18.156582" fill-rule="evenodd"/><path fill="#000000" fill-opacity="0.0" d="m244.63083 33.323246l0 0c0 -10.027601 20.176605 -18.15658 45.065674 -18.15658c24.8891 0 45.065704 8.128979 45.065704 18.15658l0 72.62633c0 10.027603 -20.176605 18.156578 -45.065704 18.156578c-24.889069 0 -45.065674 -8.128975 -45.065674 -18.156578z" fill-rule="evenodd"/><path stroke="#595959" stroke-width="1.0" stroke-linejoin="round" stroke-linecap="butt" d="m334.7622 33.323246l0 0c0 10.027603 -20.176605 18.156582 -45.065704 18.156582c-24.889069 0 -45.065674 -8.128979 -45.065674 -18.156582" fill-rule="evenodd"/><path stroke="#595959" stroke-width="1.0" stroke-linejoin="round" stroke-linecap="butt" d="m244.63083 33.323246l0 0c0 -10.027601 20.176605 -18.15658 45.065674 -18.15658c24.8891 0 45.065704 8.128979 45.065704 18.15658l0 72.62633c0 10.027603 -20.176605 18.156578 -45.065704 18.156578c-24.889069 0 -45.065674 -8.128975 -45.065674 -18.156578z" fill-rule="evenodd"/><path fill="#595959" d="m257.8297 67.5147l0 -8.890625l3.03125 0q2.03125 0 3.296875 1.265625q1.265625 1.25 1.265625 3.1875q0 1.9375 -1.28125 3.1875q-1.265625 1.25 -3.28125 1.25l-3.03125 0zm3.03125 -0.984375q1.515625 0 2.453125 -0.953125q0.953125 -0.953125 0.953125 -2.5q0 -1.546875 -0.9375 -2.5q-0.921875 -0.96875 -2.46875 -0.96875l-1.9375 0l0 6.921875l1.9375 0zm9.157776 1.140625q-1.453125 0 -2.375 -0.9375q-0.90625 -0.953125 -0.90625 -2.4375q0 -1.4375 0.90625 -2.40625q0.90625 -0.96875 2.265625 -0.96875q1.390625 0 2.234375 0.96875q0.859375 0.953125 0.859375 2.484375l0 0.25l-5.21875 0q0.0625 0.984375 0.71875 1.609375q0.65625 0.609375 1.609375 0.609375q1.171875 0 1.984375 -0.8125l0.484375 0.65625q-0.984375 0.984375 -2.5625 0.984375zm2.0 -3.78125q0 -0.890625 -0.59375 -1.515625q-0.578125 -0.625 -1.53125 -0.625q-0.890625 0 -1.484375 0.625q-0.59375 0.625 -0.625 1.515625l4.234375 0zm5.4411926 3.78125q-1.421875 0 -2.328125 -0.953125q-0.890625 -0.96875 -0.890625 -2.421875q0 -1.453125 0.890625 -2.40625q0.90625 -0.96875 2.328125 -0.96875q1.484375 0 2.359375 1.109375l-0.671875 0.625q-0.609375 -0.84375 -1.640625 -0.84375q-0.984375 0 -1.609375 0.6875q-0.609375 0.6875 -0.609375 1.796875q0 1.109375 0.609375 1.796875q0.609375 0.6875 1.609375 0.6875q1.015625 0 1.640625 -0.84375l0.671875 0.625q-0.875 1.109375 -2.359375 1.109375zm3.753662 -0.15625l0 -8.890625l1.0 0l0 8.890625l-1.0 0zm7.03006 0l0 -0.734375q-0.8125 0.890625 -2.140625 0.890625q-0.96875 0 -1.609375 -0.609375q-0.640625 -0.609375 -0.640625 -1.515625q0 -0.9375 0.625 -1.53125q0.640625 -0.59375 1.625 -0.59375q1.390625 0 2.140625 0.875l0 -1.15625q0 -0.65625 -0.46875 -1.0q-0.453125 -0.359375 -1.15625 -0.359375q-1.140625 0 -1.984375 0.890625l-0.46875 -0.6875q1.03125 -1.0625 2.578125 -1.0625q1.1875 0 1.84375 0.578125q0.65625 0.5625 0.65625 1.59375l0 4.421875l-1.0 0zm-1.78125 -0.5625q1.1875 0 1.78125 -0.796875l0 -1.21875q-0.59375 -0.796875 -1.78125 -0.796875q-0.703125 0 -1.140625 0.40625q-0.4375 0.390625 -0.4375 1.015625q0 0.609375 0.4375 1.0q0.4375 0.390625 1.140625 0.390625zm4.7738953 0.5625l0 -6.4375l1.0 0l0 1.046875q0.890625 -1.1875 2.140625 -1.1875l0 1.03125l-0.390625 -0.03125q-0.453125 0 -1.0 0.328125q-0.546875 0.3125 -0.75 0.6875l0 4.5625l-1.0 0zm8.429504 0l0 -0.734375q-0.8125 0.890625 -2.140625 0.890625q-0.96875 0 -1.609375 -0.609375q-0.640625 -0.609375 -0.640625 -1.515625q0 -0.9375 0.625 -1.53125q0.640625 -0.59375 1.625 -0.59375q1.390625 0 2.140625 0.875l0 -1.15625q0 -0.65625 -0.46875 -1.0q-0.453125 -0.359375 -1.15625 -0.359375q-1.140625 0 -1.984375 0.890625l-0.46875 -0.6875q1.03125 -1.0625 2.578125 -1.0625q1.1875 0 1.84375 0.578125q0.65625 0.5625 0.65625 1.59375l0 4.421875l-1.0 0zm-1.78125 -0.5625q1.1875 0 1.78125 -0.796875l0 -1.21875q-0.59375 -0.796875 -1.78125 -0.796875q-0.703125 0 -1.140625 0.40625q-0.4375 0.390625 -0.4375 1.015625q0 0.609375 0.4375 1.0q0.4375 0.390625 1.140625 0.390625zm6.3988953 0.71875q-1.421875 0 -1.421875 -1.5l0 -4.21875l-1.0625 0l0 -0.875l1.0625 0l0 -1.765625l1.0 0l0 1.765625l1.296875 0l0 0.875l-1.296875 0l0 4.0q0 0.359375 0.15625 0.59375q0.15625 0.234375 0.5 0.234375q0.40625 0 0.671875 -0.265625l0.296875 0.75q-0.421875 0.40625 -1.203125 0.40625zm2.793457 -7.515625q-0.28125 0 -0.484375 -0.1875q-0.1875 -0.203125 -0.1875 -0.484375q0 -0.265625 0.1875 -0.46875q0.203125 -0.203125 0.484375 -0.203125q0.265625 0 0.46875 0.203125q0.203125 0.203125 0.203125 0.46875q0 0.28125 -0.203125 0.484375q-0.203125 0.1875 -0.46875 0.1875zm-0.5 7.359375l0 -6.4375l1.0 0l0 6.4375l-1.0 0zm4.71756 0l-2.671875 -6.4375l1.078125 0l2.140625 5.28125l2.125 -5.28125l1.09375 0l-2.671875 6.4375l-1.09375 0zm7.7182617 0.15625q-1.453125 0 -2.375 -0.9375q-0.90625 -0.953125 -0.90625 -2.4375q0 -1.4375 0.90625 -2.40625q0.90625 -0.96875 2.265625 -0.96875q1.390625 0 2.234375 0.96875q0.859375 0.953125 0.859375 2.484375l0 0.25l-5.21875 0q0.0625 0.984375 0.71875 1.609375q0.65625 0.609375 1.609375 0.609375q1.171875 0 1.984375 -0.8125l0.484375 0.65625q-0.984375 0.984375 -2.5625 0.984375zm2.0 -3.78125q0 -0.890625 -0.59375 -1.515625q-0.578125 -0.625 -1.53125 -0.625q-0.890625 0 -1.484375 0.625q-0.59375 0.625 -0.625 1.515625l4.234375 0z" fill-rule="nonzero"/><path fill="#595959" d="m262.55466 83.5147l0 -0.953125q-0.375 0.484375 -0.9375 0.796875q-0.5625 0.3125 -1.25 0.3125q-1.28125 0 -2.078125 -0.90625q-0.78125 -0.921875 -0.78125 -2.46875q0 -1.546875 0.796875 -2.453125q0.796875 -0.921875 2.0625 -0.921875q0.65625 0 1.21875 0.296875q0.578125 0.296875 0.96875 0.828125l0 -3.421875l0.984375 0l0 8.890625l-0.984375 0zm-1.9375 -0.734375q0.59375 0 1.125 -0.28125q0.53125 -0.296875 0.8125 -0.734375l0 -2.921875q-0.28125 -0.421875 -0.8125 -0.71875q-0.53125 -0.3125 -1.125 -0.3125q-0.9375 0 -1.5 0.6875q-0.5625 0.671875 -0.5625 1.796875q0 1.109375 0.546875 1.796875q0.5625 0.6875 1.515625 0.6875zm8.960541 0.734375l0 -0.734375q-0.8125 0.890625 -2.140625 0.890625q-0.96875 0 -1.609375 -0.609375q-0.640625 -0.609375 -0.640625 -1.515625q0 -0.9375 0.625 -1.53125q0.640625 -0.59375 1.625 -0.59375q1.390625 0 2.140625 0.875l0 -1.15625q0 -0.65625 -0.46875 -1.0q-0.453125 -0.359375 -1.15625 -0.359375q-1.140625 0 -1.984375 0.890625l-0.46875 -0.6875q1.03125 -1.0625 2.578125 -1.0625q1.1875 0 1.84375 0.578125q0.65625 0.5625 0.65625 1.59375l0 4.421875l-1.0 0zm-1.78125 -0.5625q1.1875 0 1.78125 -0.796875l0 -1.21875q-0.59375 -0.796875 -1.78125 -0.796875q-0.703125 0 -1.140625 0.40625q-0.4375 0.390625 -0.4375 1.015625q0 0.609375 0.4375 1.0q0.4375 0.390625 1.140625 0.390625zm6.3988953 0.71875q-1.421875 0 -1.421875 -1.5l0 -4.21875l-1.0625 0l0 -0.875l1.0625 0l0 -1.765625l1.0 0l0 1.765625l1.296875 0l0 0.875l-1.296875 0l0 4.0q0 0.359375 0.15625 0.59375q0.15625 0.234375 0.5 0.234375q0.40625 0 0.671875 -0.265625l0.296875 0.75q-0.421875 0.40625 -1.203125 0.40625zm6.324707 -0.15625l0 -0.734375q-0.8125 0.890625 -2.140625 0.890625q-0.96875 0 -1.609375 -0.609375q-0.640625 -0.609375 -0.640625 -1.515625q0 -0.9375 0.625 -1.53125q0.640625 -0.59375 1.625 -0.59375q1.390625 0 2.140625 0.875l0 -1.15625q0 -0.65625 -0.46875 -1.0q-0.453125 -0.359375 -1.15625 -0.359375q-1.140625 0 -1.984375 0.890625l-0.46875 -0.6875q1.03125 -1.0625 2.578125 -1.0625q1.1875 0 1.84375 0.578125q0.65625 0.5625 0.65625 1.59375l0 4.421875l-1.0 0zm-1.78125 -0.5625q1.1875 0 1.78125 -0.796875l0 -1.21875q-0.59375 -0.796875 -1.78125 -0.796875q-0.703125 0 -1.140625 0.40625q-0.4375 0.390625 -0.4375 1.015625q0 0.609375 0.4375 1.0q0.4375 0.390625 1.140625 0.390625zm15.978149 0.5625l0 -4.375q0 -1.328125 -1.1875 -1.328125q-0.5 0 -0.984375 0.296875q-0.46875 0.296875 -0.71875 0.6875l0 4.71875l-1.0 0l0 -4.375q0 -1.328125 -1.1875 -1.328125q-0.484375 0 -0.953125 0.3125q-0.46875 0.296875 -0.734375 0.6875l0 4.703125l-1.0 0l0 -6.4375l1.0 0l0 0.9375q0.21875 -0.390625 0.84375 -0.734375q0.640625 -0.359375 1.234375 -0.359375q0.75 0 1.171875 0.34375q0.421875 0.34375 0.5625 0.859375q0.328125 -0.53125 0.9375 -0.859375q0.625 -0.34375 1.21875 -0.34375q1.796875 0 1.796875 1.9375l0 4.65625l-1.0 0zm5.815979 0.15625q-1.40625 0 -2.296875 -0.953125q-0.890625 -0.953125 -0.890625 -2.421875q0 -1.5 0.890625 -2.4375q0.890625 -0.9375 2.296875 -0.9375q1.40625 0 2.296875 0.9375q0.890625 0.9375 0.890625 2.4375q0 1.46875 -0.890625 2.421875q-0.890625 0.953125 -2.296875 0.953125zm0 -0.890625q0.9375 0 1.53125 -0.6875q0.59375 -0.703125 0.59375 -1.796875q0 -1.09375 -0.59375 -1.78125q-0.59375 -0.703125 -1.53125 -0.703125q-0.9375 0 -1.546875 0.703125q-0.59375 0.6875 -0.59375 1.78125q0 1.09375 0.59375 1.796875q0.59375 0.6875 1.546875 0.6875zm9.483032 0.734375l0 -0.953125q-0.375 0.484375 -0.9375 0.796875q-0.5625 0.3125 -1.25 0.3125q-1.28125 0 -2.078125 -0.90625q-0.78125 -0.921875 -0.78125 -2.46875q0 -1.546875 0.796875 -2.453125q0.796875 -0.921875 2.0625 -0.921875q0.65625 0 1.21875 0.296875q0.578125 0.296875 0.96875 0.828125l0 -3.421875l0.984375 0l0 8.890625l-0.984375 0zm-1.9375 -0.734375q0.59375 0 1.125 -0.28125q0.53125 -0.296875 0.8125 -0.734375l0 -2.921875q-0.28125 -0.421875 -0.8125 -0.71875q-0.53125 -0.3125 -1.125 -0.3125q-0.9375 0 -1.5 0.6875q-0.5625 0.671875 -0.5625 1.796875q0 1.109375 0.546875 1.796875q0.5625 0.6875 1.515625 0.6875zm7.8355103 0.890625q-1.453125 0 -2.375 -0.9375q-0.90625 -0.953125 -0.90625 -2.4375q0 -1.4375 0.90625 -2.40625q0.90625 -0.96875 2.265625 -0.96875q1.390625 0 2.234375 0.96875q0.859375 0.953125 0.859375 2.484375l0 0.25l-5.21875 0q0.0625 0.984375 0.71875 1.609375q0.65625 0.609375 1.609375 0.609375q1.171875 0 1.984375 -0.8125l0.484375 0.65625q-0.984375 0.984375 -2.5625 0.984375zm2.0 -3.78125q0 -0.890625 -0.59375 -1.515625q-0.578125 -0.625 -1.53125 -0.625q-0.890625 0 -1.484375 0.625q-0.59375 0.625 -0.625 1.515625l4.234375 0zm2.5974731 3.625l0 -8.890625l1.0 0l0 8.890625l-1.0 0z" fill-rule="nonzero"/><path fill="#595959" d="m262.14798 92.15533q-0.28125 0 -0.484375 -0.1875q-0.1875 -0.203125 -0.1875 -0.484375q0 -0.265625 0.1875 -0.46875q0.203125 -0.203125 0.484375 -0.203125q0.265625 0 0.46875 0.203125q0.203125 0.203125 0.203125 0.46875q0 0.28125 -0.203125 0.484375q-0.203125 0.1875 -0.46875 0.1875zm-0.5 7.359375l0 -6.4375l1.0 0l0 6.4375l-1.0 0zm7.34256 0l0 -4.21875q0 -0.84375 -0.390625 -1.15625q-0.390625 -0.328125 -1.046875 -0.328125q-0.5625 0 -1.109375 0.296875q-0.53125 0.296875 -0.796875 0.703125l0 4.703125l-1.0 0l0 -6.4375l1.0 0l0 0.9375q0.40625 -0.484375 1.015625 -0.78125q0.609375 -0.3125 1.28125 -0.3125q2.046875 0 2.046875 2.078125l0 4.515625l-1.0 0zm8.46991 0.15625q-1.625 0 -2.59375 -1.015625l0.515625 -0.71875q0.328125 0.375 0.890625 0.65625q0.5625 0.265625 1.234375 0.265625q0.75 0 1.125 -0.3125q0.390625 -0.3125 0.390625 -0.796875q0 -0.421875 -0.421875 -0.65625q-0.40625 -0.25 -1.5625 -0.53125q-0.96875 -0.1875 -1.484375 -0.625q-0.515625 -0.4375 -0.515625 -1.171875q0 -0.8125 0.65625 -1.328125q0.65625 -0.515625 1.75 -0.515625q1.453125 0 2.375 0.921875l-0.453125 0.703125q-0.296875 -0.34375 -0.796875 -0.578125q-0.5 -0.234375 -1.125 -0.234375q-0.671875 0 -1.046875 0.296875q-0.375 0.28125 -0.375 0.71875q0 0.375 0.421875 0.609375q0.421875 0.21875 1.5625 0.46875q0.984375 0.21875 1.484375 0.6875q0.515625 0.453125 0.515625 1.21875q0 0.890625 -0.703125 1.421875q-0.6875 0.515625 -1.84375 0.515625zm5.7912903 0q-1.421875 0 -1.421875 -1.5l0 -4.21875l-1.0625 0l0 -0.875l1.0625 0l0 -1.765625l1.0 0l0 1.765625l1.296875 0l0 0.875l-1.296875 0l0 4.0q0 0.359375 0.15625 0.59375q0.15625 0.234375 0.5 0.234375q0.40625 0 0.671875 -0.265625l0.296875 0.75q-0.421875 0.40625 -1.203125 0.40625zm5.105957 0q-1.40625 0 -2.296875 -0.953125q-0.890625 -0.953125 -0.890625 -2.421875q0 -1.5 0.890625 -2.4375q0.890625 -0.9375 2.296875 -0.9375q1.40625 0 2.296875 0.9375q0.890625 0.9375 0.890625 2.4375q0 1.46875 -0.890625 2.421875q-0.890625 0.953125 -2.296875 0.953125zm0 -0.890625q0.9375 0 1.53125 -0.6875q0.59375 -0.703125 0.59375 -1.796875q0 -1.09375 -0.59375 -1.78125q-0.59375 -0.703125 -1.53125 -0.703125q-0.9375 0 -1.546875 0.703125q-0.59375 0.6875 -0.59375 1.78125q0 1.09375 0.59375 1.796875q0.59375 0.6875 1.546875 0.6875zm4.811157 0.734375l0 -6.4375l1.0 0l0 1.046875q0.890625 -1.1875 2.140625 -1.1875l0 1.03125l-0.390625 -0.03125q-0.453125 0 -1.0 0.328125q-0.546875 0.3125 -0.75 0.6875l0 4.5625l-1.0 0zm8.429535 0l0 -0.734375q-0.8125 0.890625 -2.140625 0.890625q-0.96875 0 -1.609375 -0.609375q-0.640625 -0.609375 -0.640625 -1.515625q0 -0.9375 0.625 -1.53125q0.640625 -0.59375 1.625 -0.59375q1.390625 0 2.140625 0.875l0 -1.15625q0 -0.65625 -0.46875 -1.0q-0.453125 -0.359375 -1.15625 -0.359375q-1.140625 0 -1.984375 0.890625l-0.46875 -0.6875q1.03125 -1.0625 2.578125 -1.0625q1.1875 0 1.84375 0.578125q0.65625 0.5625 0.65625 1.59375l0 4.421875l-1.0 0zm-1.78125 -0.5625q1.1875 0 1.78125 -0.796875l0 -1.21875q-0.59375 -0.796875 -1.78125 -0.796875q-0.703125 0 -1.140625 0.40625q-0.4375 0.390625 -0.4375 1.015625q0 0.609375 0.4375 1.0q0.4375 0.390625 1.140625 0.390625zm7.3520203 3.171875q-0.8125 0 -1.421875 -0.203125q-0.59375 -0.1875 -1.171875 -0.75l0.515625 -0.75q0.390625 0.484375 0.890625 0.671875q0.5 0.203125 1.1875 0.203125q1.0 0 1.53125 -0.515625q0.546875 -0.5 0.546875 -1.40625l0 -0.921875q-0.359375 0.484375 -0.921875 0.8125q-0.5625 0.328125 -1.25 0.328125q-1.296875 0 -2.078125 -0.921875q-0.78125 -0.921875 -0.78125 -2.40625q0 -1.546875 0.796875 -2.4375q0.796875 -0.90625 2.0625 -0.90625q1.34375 0 2.171875 1.125l0 -0.96875l1.0 0l0 6.25q0 1.359375 -0.8125 2.078125q-0.796875 0.71875 -2.265625 0.71875zm0.15625 -3.40625q0.546875 0 1.078125 -0.296875q0.546875 -0.296875 0.84375 -0.765625l0 -2.8125q-0.296875 -0.453125 -0.84375 -0.734375q-0.546875 -0.296875 -1.078125 -0.296875q-0.953125 0 -1.515625 0.6875q-0.546875 0.671875 -0.546875 1.765625q0 1.109375 0.5625 1.78125q0.578125 0.671875 1.5 0.671875zm7.822174 0.953125q-1.453125 0 -2.375 -0.9375q-0.90625 -0.953125 -0.90625 -2.4375q0 -1.4375 0.90625 -2.40625q0.90625 -0.96875 2.265625 -0.96875q1.390625 0 2.234375 0.96875q0.859375 0.953125 0.859375 2.484375l0 0.25l-5.21875 0q0.0625 0.984375 0.71875 1.609375q0.65625 0.609375 1.609375 0.609375q1.171875 0 1.984375 -0.8125l0.484375 0.65625q-0.984375 0.984375 -2.5625 0.984375zm2.0 -3.78125q0 -0.890625 -0.59375 -1.515625q-0.578125 -0.625 -1.53125 -0.625q-0.890625 0 -1.484375 0.625q-0.59375 0.625 -0.625 1.515625l4.234375 0z" fill-rule="nonzero"/><path fill="#000000" fill-opacity="0.0" d="m334.7622 69.63641l69.88977 0" fill-rule="evenodd"/><path stroke="#595959" stroke-width="2.0" stroke-linejoin="round" stroke-linecap="butt" d="m334.7622 69.63641l57.88977 0" fill-rule="evenodd"/><path fill="#595959" stroke="#595959" stroke-width="2.0" stroke-linecap="butt" d="m392.65198 72.93987l9.076202 -3.3034592l-9.076202 -3.3034668z" fill-rule="evenodd"/></g></svg>