<?xml version="1.0" encoding="UTF-8" standalone="no"?>
<svg
   role="img"
   viewBox="-7.94 -7.69 438.88 83.63"
   version="1.1"
   id="svg197"
   sodipodi:docname="logo.svg"
   xml:space="preserve"
   inkscape:version="1.2.1 (9c6d41e410, 2022-07-14)"
   xmlns:inkscape="http://www.inkscape.org/namespaces/inkscape"
   xmlns:sodipodi="http://sodipodi.sourceforge.net/DTD/sodipodi-0.dtd"
   xmlns="http://www.w3.org/2000/svg"
   xmlns:svg="http://www.w3.org/2000/svg"><sodipodi:namedview
     id="namedview199"
     pagecolor="#ffffff"
     bordercolor="#000000"
     borderopacity="0.25"
     inkscape:showpageshadow="2"
     inkscape:pageopacity="0.0"
     inkscape:pagecheckerboard="0"
     inkscape:deskcolor="#d1d1d1"
     showgrid="false"
     inkscape:zoom="1.4297758"
     inkscape:cx="208.77399"
     inkscape:cy="160.16497"
     inkscape:window-width="1920"
     inkscape:window-height="1027"
     inkscape:window-x="2549"
     inkscape:window-y="1432"
     inkscape:window-maximized="1"
     inkscape:current-layer="svg197" /><g
     clip-path="url(#clip0_27_829)"
     id="g190"
     transform="translate(1.0491155,-0.34970518)"><path
       fill="#4ac400"
       d="m 84.804,54.247 h 45 v 5.024 h -45 z m 293.383,0 h 45 v 5.024 h -45 z"
       id="path182"
       style="fill:#0086ff;fill-opacity:1" /><path
       d="m 100.829,26.3671 c 1.62,0.0321 3.224,-0.3213 4.68,-1.0311 1.456,-0.7098 2.722,-1.7557 3.695,-3.0513 l 4.501,4.6058 c -3.559,3.9777 -7.642,5.9666 -12.457,5.9666 -2.1728,0.0829 -4.3401,-0.273 -6.3724,-1.0463 -2.0323,-0.7734 -3.8878,-1.9484 -5.4559,-3.4548 -1.527,-1.471 -2.7265,-3.2475 -3.5201,-5.2136 -0.7937,-1.966 -1.1636,-4.0774 -1.0857,-6.1962 -0.0596,-2.1414 0.3285,-4.2717 1.1397,-6.2545 0.8111,-1.98275 2.0273,-3.7743 3.5707,-5.25994 1.6601,-1.5663 3.6203,-2.77999 5.7624,-3.56784 2.1421,-0.78785 4.4216,-1.133508 6.7013,-1.016118 2.279,0.117391 4.511,0.695398 6.561,1.699138 2.049,1.00373 3.875,2.41239 5.365,4.14094 l -4.292,4.91982 c -0.945,-1.273 -2.177,-2.30582 -3.595,-3.01499 -1.419,-0.70916 -2.984,-1.07481 -4.57,-1.06741 -2.4713,-0.04756 -4.8678,0.85113 -6.6988,2.5122 -0.9502,0.8729 -1.6962,1.9446 -2.1847,3.1387 -0.4885,1.1942 -0.7076,2.4815 -0.6416,3.77 -0.0662,1.2858 0.1319,2.5715 0.582,3.7777 0.4501,1.2063 1.1426,2.3075 2.0349,3.2356 1.7223,1.5541 3.9609,2.4122 6.2802,2.4076 z m 18.318,6.0712 V 1.34937 h 6.909 V 26.2624 h 13.294 v 6.1759 z m 50.56,-4.2916 c -3.146,2.9588 -7.301,4.6062 -11.62,4.6062 -4.318,0 -8.473,-1.6474 -11.619,-4.6062 -1.534,-1.4709 -2.744,-3.245 -3.555,-5.2093 -0.811,-1.9643 -1.205,-4.0759 -1.155,-6.2005 -0.059,-2.1258 0.329,-4.2403 1.141,-6.2061 0.812,-1.96573 2.028,-3.7387 3.569,-5.20363 3.146,-2.95881 7.301,-4.606223 11.619,-4.606223 4.319,0 8.474,1.647413 11.62,4.606223 1.533,1.47089 2.744,3.24493 3.555,5.20923 0.811,1.9644 1.204,4.076 1.155,6.2005 0.059,2.1259 -0.33,4.2404 -1.141,6.2061 -0.812,1.9658 -2.028,3.7387 -3.569,5.2037 z m -2.408,-11.4098 c 0.019,-2.6303 -0.952,-5.1716 -2.722,-7.11799 -0.833,-0.92235 -1.85,-1.65965 -2.986,-2.16429 -1.136,-0.50463 -2.365,-0.76537 -3.608,-0.76537 -1.243,0 -2.472,0.26074 -3.608,0.76537 -1.136,0.50464 -2.154,1.24194 -2.987,2.16429 -1.789,1.93399 -2.764,4.48349 -2.721,7.11799 -0.02,2.6304 0.952,5.1716 2.721,7.118 0.833,0.9224 1.851,1.6597 2.987,2.1643 1.136,0.5047 2.365,0.7654 3.608,0.7654 1.243,0 2.472,-0.2607 3.608,-0.7654 1.136,-0.5046 2.153,-1.2419 2.986,-2.1643 0.907,-0.9441 1.615,-2.0606 2.082,-3.2832 0.468,-1.2226 0.685,-2.5266 0.64,-3.8348 z m 21.249,7.7461 c 0.553,0.7159 1.269,1.289 2.088,1.6715 0.82,0.3824 1.719,0.563 2.623,0.5267 0.89,0.0473 1.778,-0.1291 2.582,-0.5131 0.805,-0.384 1.5,-0.9633 2.023,-1.6851 1.203,-1.7098 1.793,-3.7751 1.675,-5.8619 V 1.4541 h 6.909 v 17.3763 c 0,4.5011 -1.256,7.9555 -3.768,10.363 -1.265,1.2129 -2.759,2.1615 -4.394,2.7906 -1.636,0.629 -3.38,0.9258 -5.132,0.8731 -1.767,0.0528 -3.528,-0.2437 -5.18,-0.8724 -1.653,-0.6286 -3.165,-1.5772 -4.45,-2.7913 -2.513,-2.4075 -3.769,-5.8619 -3.769,-10.363 V 1.4541 h 6.909 v 17.167 c -0.002,2.1032 0.657,4.1538 1.884,5.8619 z M 237.432,5.43176 c 2.931,2.72159 4.501,6.48994 4.501,11.30504 0,4.8152 -1.465,8.6882 -4.291,11.5145 -2.827,2.8262 -7.328,4.187 -13.19,4.187 H 213.671 V 1.34937 h 10.991 c 5.548,0 9.839,1.36079 12.77,4.08239 z m -5.024,18.52774 c 1.675,-1.5701 2.512,-3.9777 2.512,-7.0133 0,-3.0356 -0.837,-5.4432 -2.512,-7.01334 -1.675,-1.57016 -4.292,-2.51225 -7.851,-2.51225 h -3.873 V 26.3671 h 4.396 c 2.658,0.1416 5.272,-0.7174 7.328,-2.4076 z M 281.396,1.34937 h 6.909 V 32.4383 h -6.909 L 266.532,12.9685 v 19.4698 h -6.908 V 1.34937 h 6.489 l 15.283,19.99323 z m 36.742,31.08893 -2.931,-6.6993 h -13.085 l -2.931,6.6993 h -7.432 L 305.158,1.34937 h 6.699 l 13.399,31.08893 z m -9.316,-21.7727 -3.873,9.0022 h 7.746 z M 340.12,7.42067 V 32.5431 h -6.909 V 7.42067 h -8.793 V 1.4541 h 24.599 v 5.96657 z m 13.817,-6.0713 h 6.909 V 32.4383 h -6.909 z m 26.065,19.78393 7.955,-19.78393 h 7.537 L 383.037,32.4383 h -5.861 L 364.719,1.34937 h 7.537 z M 421.559,1.34937 v 6.17592 h -15.493 v 6.38531 h 13.922 v 5.9665 h -13.922 v 6.49 h 16.016 V 32.543 H 399.158 V 1.45404 h 22.401 z M 10.0744,45.3447 H 0.548828 V 67.7141 H 22.845 V 58.0943 H 10.0744 Z m 47.942,0.1047 V 58.0943 H 45.2458 v 9.6198 H 67.542 V 45.3447 H 57.9117 Z M 0.548828,23.0904 H 10.1791 L 10.0744,22.9857 V 10.3407 H 22.845 V 0.720947 H 0.548828 Z M 45.2458,0.720947 V 10.3407 H 58.0164 V 23.0904 H 67.542 V 0.720947 Z"
       id="path184" /><path
       d="M 43.9897,23.0904 31.2191,10.3407 H 45.2458 V 0.720947 H 22.845 V 10.3407 L 35.6155,23.0904 Z M 32.4752,45.3447 h -8.3741 l 10.5723,10.5619 2.0936,2.1877 H 22.845 v 9.6198 H 45.2458 V 57.9897 L 38.8605,51.7091 Z M 58.0164,23.0903 V 36.9914 L 55.8182,34.7932 45.2458,24.2313 v 8.4684 l 6.2807,6.2806 6.3852,6.3748 H 67.542 V 23.0903 Z M 22.845,35.7353 10.1791,23.0903 H 0.548828 V 45.3446 H 10.0744 V 31.4435 L 22.845,44.2036 Z"
       opacity="0.65"
       id="path186" /></g><defs
     id="defs195"><clipPath
       id="clip0_27_829"><path
         fill="#fff"
         d="M0 0H422.161V66.993H0z"
         transform="translate(.549 .72)"
         id="path192" /></clipPath></defs><text
     xml:space="preserve"
     style="font-size:96px;font-family:'Nokia Pure Headline';-inkscape-font-specification:'Nokia Pure Headline';fill:#f4f0fd;stroke-width:1.54205;paint-order:markers fill stroke"
     x="259.58447"
     y="62.251034"
     id="text480"><tspan
       sodipodi:role="line"
       id="tspan478"
       x="259.58447"
       y="62.251034" /></text><text
     xml:space="preserve"
     style="font-size:38.4295px;font-family:'Nokia Pure Headline';-inkscape-font-specification:'Nokia Pure Headline';letter-spacing:3px;fill:#f4f0fd;stroke-width:0.617294;paint-order:markers fill stroke"
     x="163.28946"
     y="69.117149"
     id="text484"><tspan
       sodipodi:role="line"
       id="tspan482"
       x="163.28946"
       y="69.117149"
       style="font-style:normal;font-variant:normal;font-weight:bold;font-stretch:normal;font-family:'Inter 28pt';-inkscape-font-specification:'Inter 28pt Bold';fill:#000000;fill-opacity:1;stroke-width:0.617294">FINLAND</tspan></text></svg>
