<?xml version="1.0" encoding="UTF-8"?>
<svg width="325px" height="276px" viewBox="0 0 325 276" version="1.1" xmlns="http://www.w3.org/2000/svg" xmlns:xlink="http://www.w3.org/1999/xlink" jetway-hooks="{}">
    <!-- Generator: Sketch 63.1 (92452) - https://sketch.com -->
    <title>Kpt project logo</title>
    <desc>Created with Sketch.</desc>
    <defs>
        <path d="M146.824446,276 L146.824446,260.828753 C142.280807,260.310078 137.704713,259.532065 133.096165,258.494715 C128.487617,257.457364 125.014979,256.420014 122.67825,255.382664 C117.615339,253.178295 114.240064,250.45525 112.552427,247.213531 C110.864789,243.971811 110.020971,240.016913 110.020971,235.348837 L110.020971,235.348837 L110.020971,148.600423 L120.146794,148.600423 C140.787897,174.274841 157.729179,195.605356 170.970641,212.591966 C184.212103,229.578576 199.076293,250.714588 215.563212,276 L215.563212,276 L325,276 L325,260.828753 C322.01418,260.699084 318.444178,260.245243 314.289994,259.46723 C310.13581,258.689218 306.43599,257.587033 303.190533,256.160677 C296.310166,253.178295 290.01398,249.255814 284.301977,244.393235 C278.589974,239.530655 273.527062,234.441156 269.113241,229.124736 C251.717595,208.248062 234.25704,186.820296 216.731576,164.841438 C199.206111,142.862579 184.212103,124.287526 171.749551,109.116279 C185.89974,94.8527132 197.48602,83.1501057 206.508388,74.0084567 C215.530757,64.8668076 226.987218,54.0718816 240.877771,41.6236786 C250.61414,32.9358703 260.415418,26.744186 270.281606,23.0486258 C280.147793,19.3530655 292.350709,16.7272727 306.890354,15.1712474 L306.890354,15.1712474 L306.890354,0 L186.743559,0 L186.743559,15.1712474 C196.35011,15.6899225 203.490114,16.5327696 208.163571,17.6997886 C212.837028,18.8668076 215.173757,20.5525018 215.173757,22.756871 C215.173757,27.6842847 212.739664,33.5193798 207.87148,40.2621564 C203.003295,47.0049331 195.376473,56.1465821 184.991013,67.6871036 C177.591372,75.9859056 167.141003,86.6187456 153.639904,99.5856237 C140.138806,112.552502 128.325345,123.639183 118.199521,132.845666 L118.199521,132.845666 L110.020971,132.845666 L110.020971,39.8731501 C110.020971,35.4644116 110.864789,31.4446794 112.552427,27.8139535 C114.240064,24.1832276 117.615339,21.5250176 122.67825,19.8393235 C126.702616,18.5426357 131.538346,17.5377026 137.18544,16.8245243 C142.832534,16.111346 147.668264,15.5602537 151.69263,15.1712474 L151.69263,15.1712474 L151.69263,0 L0,0 L0,15.1712474 C3.50509287,15.5602537 8.1136409,16.3382664 13.8256441,17.5052854 C19.5376473,18.6723044 24.4058318,20.1634954 28.4301977,21.9788584 C33.6229279,24.4425652 36.9982025,27.230444 38.5560216,30.3424947 C40.1138406,33.4545455 40.8927501,37.2797745 40.8927501,41.8181818 L40.8927501,41.8181818 L40.8927501,237.488372 C40.8927501,242.415786 39.9840224,246.500352 38.1665668,249.742072 C36.3491112,252.983791 33.1036549,255.512333 28.4301977,257.327696 C25.8338326,258.365046 21.3226483,259.143058 14.8966447,259.661734 C8.4706411,260.180409 3.50509287,260.569415 0,260.828753 L0,260.828753 L0,276 L146.824446,276 Z" id="path-1"></path>
        <filter x="-1.5%" y="-1.8%" width="103.1%" height="103.6%" filterUnits="objectBoundingBox" id="filter-3">
            <feGaussianBlur stdDeviation="1.5" in="SourceAlpha" result="shadowBlurInner1"></feGaussianBlur>
            <feOffset dx="2" dy="7" in="shadowBlurInner1" result="shadowOffsetInner1"></feOffset>
            <feComposite in="shadowOffsetInner1" in2="SourceAlpha" operator="arithmetic" k2="-1" k3="1" result="shadowInnerInner1"></feComposite>
            <feColorMatrix values="0 0 0 0 0.853389502   0 0 0 0 0.862857223   0 0 0 0 0.880035222  0 0 0 1 0" type="matrix" in="shadowInnerInner1"></feColorMatrix>
        </filter>
        <circle id="path-4" cx="154" cy="106" r="266"></circle>
        <filter x="-1.3%" y="-0.9%" width="102.6%" height="102.6%" filterUnits="objectBoundingBox" id="filter-5">
            <feOffset dx="0" dy="2" in="SourceAlpha" result="shadowOffsetOuter1"></feOffset>
            <feGaussianBlur stdDeviation="2" in="shadowOffsetOuter1" result="shadowBlurOuter1"></feGaussianBlur>
            <feColorMatrix values="0 0 0 0 0   0 0 0 0 0   0 0 0 0 0  0 0 0 0.5 0" type="matrix" in="shadowBlurOuter1"></feColorMatrix>
        </filter>
        <circle id="path-6" cx="87" cy="75" r="206"></circle>
        <filter x="-1.7%" y="-1.2%" width="103.4%" height="103.4%" filterUnits="objectBoundingBox" id="filter-7">
            <feOffset dx="0" dy="2" in="SourceAlpha" result="shadowOffsetOuter1"></feOffset>
            <feGaussianBlur stdDeviation="2" in="shadowOffsetOuter1" result="shadowBlurOuter1"></feGaussianBlur>
            <feColorMatrix values="0 0 0 0 0   0 0 0 0 0   0 0 0 0 0  0 0 0 0.5 0" type="matrix" in="shadowBlurOuter1"></feColorMatrix>
        </filter>
        <circle id="path-8" cx="60" cy="48" r="179"></circle>
        <filter x="-2.0%" y="-1.4%" width="103.9%" height="103.9%" filterUnits="objectBoundingBox" id="filter-9">
            <feOffset dx="0" dy="2" in="SourceAlpha" result="shadowOffsetOuter1"></feOffset>
            <feGaussianBlur stdDeviation="2" in="shadowOffsetOuter1" result="shadowBlurOuter1"></feGaussianBlur>
            <feColorMatrix values="0 0 0 0 0   0 0 0 0 0   0 0 0 0 0  0 0 0 0.5 0" type="matrix" in="shadowBlurOuter1"></feColorMatrix>
        </filter>
        <circle id="path-10" cx="44.5" cy="32.5" r="150.5"></circle>
        <filter x="-3.2%" y="-1.8%" width="106.3%" height="107.3%" filterUnits="objectBoundingBox" id="filter-11">
            <feOffset dx="0" dy="7" in="SourceAlpha" result="shadowOffsetOuter1"></feOffset>
            <feGaussianBlur stdDeviation="2" in="shadowOffsetOuter1" result="shadowBlurOuter1"></feGaussianBlur>
            <feColorMatrix values="0 0 0 0 0   0 0 0 0 0   0 0 0 0 0  0 0 0 0.5 0" type="matrix" in="shadowBlurOuter1"></feColorMatrix>
        </filter>
        <circle id="path-12" cx="28" cy="9" r="104"></circle>
        <filter x="-5.0%" y="-3.1%" width="110.1%" height="112.5%" filterUnits="objectBoundingBox" id="filter-13">
            <feOffset dx="0" dy="9" in="SourceAlpha" result="shadowOffsetOuter1"></feOffset>
            <feGaussianBlur stdDeviation="2" in="shadowOffsetOuter1" result="shadowBlurOuter1"></feGaussianBlur>
            <feColorMatrix values="0 0 0 0 0   0 0 0 0 0   0 0 0 0 0  0 0 0 0.5 0" type="matrix" in="shadowBlurOuter1"></feColorMatrix>
        </filter>
        <path d="M146.824446,276 L146.824446,260.828753 C142.280807,260.310078 137.704713,259.532065 133.096165,258.494715 C128.487617,257.457364 125.014979,256.420014 122.67825,255.382664 C117.615339,253.178295 114.240064,250.45525 112.552427,247.213531 C110.864789,243.971811 110.020971,240.016913 110.020971,235.348837 L110.020971,235.348837 L110.020971,148.600423 L120.146794,148.600423 C140.787897,174.274841 157.729179,195.605356 170.970641,212.591966 C184.212103,229.578576 199.076293,250.714588 215.563212,276 L215.563212,276 L325,276 L325,260.828753 C322.01418,260.699084 318.444178,260.245243 314.289994,259.46723 C310.13581,258.689218 306.43599,257.587033 303.190533,256.160677 C296.310166,253.178295 290.01398,249.255814 284.301977,244.393235 C278.589974,239.530655 273.527062,234.441156 269.113241,229.124736 C251.717595,208.248062 234.25704,186.820296 216.731576,164.841438 C199.206111,142.862579 184.212103,124.287526 171.749551,109.116279 C185.89974,94.8527132 197.48602,83.1501057 206.508388,74.0084567 C215.530757,64.8668076 226.987218,54.0718816 240.877771,41.6236786 C250.61414,32.9358703 260.415418,26.744186 270.281606,23.0486258 C280.147793,19.3530655 292.350709,16.7272727 306.890354,15.1712474 L306.890354,15.1712474 L306.890354,0 L186.743559,0 L186.743559,15.1712474 C196.35011,15.6899225 203.490114,16.5327696 208.163571,17.6997886 C212.837028,18.8668076 215.173757,20.5525018 215.173757,22.756871 C215.173757,27.6842847 212.739664,33.5193798 207.87148,40.2621564 C203.003295,47.0049331 195.376473,56.1465821 184.991013,67.6871036 C177.591372,75.9859056 167.141003,86.6187456 153.639904,99.5856237 C140.138806,112.552502 128.325345,123.639183 118.199521,132.845666 L118.199521,132.845666 L110.020971,132.845666 L110.020971,39.8731501 C110.020971,35.4644116 110.864789,31.4446794 112.552427,27.8139535 C114.240064,24.1832276 117.615339,21.5250176 122.67825,19.8393235 C126.702616,18.5426357 131.538346,17.5377026 137.18544,16.8245243 C142.832534,16.111346 147.668264,15.5602537 151.69263,15.1712474 L151.69263,15.1712474 L151.69263,0 L0,0 L0,15.1712474 C3.50509287,15.5602537 8.1136409,16.3382664 13.8256441,17.5052854 C19.5376473,18.6723044 24.4058318,20.1634954 28.4301977,21.9788584 C33.6229279,24.4425652 36.9982025,27.230444 38.5560216,30.3424947 C40.1138406,33.4545455 40.8927501,37.2797745 40.8927501,41.8181818 L40.8927501,41.8181818 L40.8927501,237.488372 C40.8927501,242.415786 39.9840224,246.500352 38.1665668,249.742072 C36.3491112,252.983791 33.1036549,255.512333 28.4301977,257.327696 C25.8338326,258.365046 21.3226483,259.143058 14.8966447,259.661734 C8.4706411,260.180409 3.50509287,260.569415 0,260.828753 L0,260.828753 L0,276 L146.824446,276 Z" id="path-14"></path>
        <filter x="-2.9%" y="-3.4%" width="105.8%" height="106.9%" filterUnits="objectBoundingBox" id="filter-16">
            <feGaussianBlur stdDeviation="6" in="SourceAlpha" result="shadowBlurInner1"></feGaussianBlur>
            <feOffset dx="2" dy="7" in="shadowBlurInner1" result="shadowOffsetInner1"></feOffset>
            <feComposite in="shadowOffsetInner1" in2="SourceAlpha" operator="arithmetic" k2="-1" k3="1" result="shadowInnerInner1"></feComposite>
            <feColorMatrix values="0 0 0 0 0.0117360169   0 0 0 0 0.0842561207   0 0 0 0 0.288751132  0 0 0 0.16996285 0" type="matrix" in="shadowInnerInner1"></feColorMatrix>
        </filter>
    </defs>
    <g jetway-hook-id="59D5B793-0583-4CF5-846D-1C9C3BEADC79" id="Page-1" stroke="none" stroke-width="1" fill="none" fill-rule="evenodd">
        <g jetway-hook-id="E7A1BCDB-8729-44DC-94A2-049AA08E14E7" id="Kpt-project---logo" transform="translate(-335.000000, -637.000000)">
            <g jetway-hook-id="DC1557D0-C57A-4800-AD45-029356947B5F" id="Kpt-project-logo" transform="translate(335.000000, 637.000000)">
                <mask id="mask-2" fill="white">
                    <use xlink:href="#path-1"></use>
                </mask>
                <g jetway-hook-id="B386E614-4ED9-478F-BD8A-8FBF39A70A6E" id="K" fill-rule="nonzero">
                    <use fill="#F1F3F4" xlink:href="#path-1"></use>
                    <use fill="black" fill-opacity="1" filter="url(#filter-3)" xlink:href="#path-1"></use>
                </g>
                <g jetway-hook-id="FDEE43D1-09A9-4599-8553-E0ED6A5D479A" id="Oval-Copy-4" mask="url(#mask-2)">
                    <use fill="black" fill-opacity="1" filter="url(#filter-5)" xlink:href="#path-4"></use>
                    <use fill="#4682F4" fill-rule="evenodd" xlink:href="#path-4"></use>
                </g>
                <g jetway-hook-id="47D51A55-CB76-4D95-B0B6-D996344CE76B" id="Oval-Copy-4" mask="url(#mask-2)">
                    <use fill="black" fill-opacity="1" filter="url(#filter-7)" xlink:href="#path-6"></use>
                    <use fill="#2270E8" fill-rule="evenodd" xlink:href="#path-6"></use>
                </g>
                <g jetway-hook-id="0B9A3ACB-21FA-4D6C-9C2D-94FF525CD73B" id="Oval-Copy-3" mask="url(#mask-2)">
                    <use fill="black" fill-opacity="1" filter="url(#filter-9)" xlink:href="#path-8"></use>
                    <use fill="#1F64D2" fill-rule="evenodd" xlink:href="#path-8"></use>
                </g>
                <g jetway-hook-id="401EDEAB-631F-468C-80DA-6634FEE89180" id="Oval-Copy" mask="url(#mask-2)">
                    <use fill="black" fill-opacity="1" filter="url(#filter-11)" xlink:href="#path-10"></use>
                    <use fill="#1D57BC" fill-rule="evenodd" xlink:href="#path-10"></use>
                </g>
                <g jetway-hook-id="FA2F7FA6-C96D-4E10-9C37-B3285E2FA194" id="Oval" mask="url(#mask-2)">
                    <use fill="black" fill-opacity="1" filter="url(#filter-13)" xlink:href="#path-12"></use>
                    <use fill="#1B4CA6" fill-rule="evenodd" xlink:href="#path-12"></use>
                </g>
                <mask id="mask-15" fill="white">
                    <use xlink:href="#path-14"></use>
                </mask>
                <g jetway-hook-id="A9F2A21B-4CAD-4FB4-AB1F-7C59D723D975" id="K" fill-rule="nonzero" fill="black" fill-opacity="1">
                    <use filter="url(#filter-16)" xlink:href="#path-14"></use>
                </g>
            </g>
        </g>
    </g>
</svg>